<svg width="540" height="540" viewBox="0 0 540 540" fill="none" xmlns="http://www.w3.org/2000/svg">
<rect width="540" height="540" fill="white"/>
<g clip-path="url(#clip0_809_1733)">
<path d="M277.558 143.65C279.67 143.65 281.383 141.937 281.383 139.825C281.383 137.712 279.67 136 277.558 136C275.445 136 273.732 137.712 273.732 139.825C273.732 141.937 275.445 143.65 277.558 143.65Z" fill="#F2F2F2"/>
<path d="M277.558 158.894C279.67 158.894 281.383 157.181 281.383 155.069C281.383 152.957 279.67 151.244 277.558 151.244C275.445 151.244 273.732 152.957 273.732 155.069C273.732 157.181 275.445 158.894 277.558 158.894Z" fill="#F2F2F2"/>
<path d="M293.528 143.65C295.641 143.65 297.353 141.937 297.353 139.825C297.353 137.712 295.641 136 293.528 136C291.416 136 289.703 137.712 289.703 139.825C289.703 141.937 291.416 143.65 293.528 143.65Z" fill="#F2F2F2"/>
<path d="M293.528 158.894C295.641 158.894 297.353 157.181 297.353 155.069C297.353 152.957 295.641 151.244 293.528 151.244C291.416 151.244 289.703 152.957 289.703 155.069C289.703 157.181 291.416 158.894 293.528 158.894Z" fill="#F2F2F2"/>
<path d="M309.499 143.65C311.612 143.65 313.324 141.937 313.324 139.825C313.324 137.712 311.612 136 309.499 136C307.386 136 305.674 137.712 305.674 139.825C305.674 141.937 307.386 143.65 309.499 143.65Z" fill="#F2F2F2"/>
<path d="M309.499 158.894C311.612 158.894 313.324 157.181 313.324 155.069C313.324 152.957 311.612 151.244 309.499 151.244C307.386 151.244 305.674 152.957 305.674 155.069C305.674 157.181 307.386 158.894 309.499 158.894Z" fill="#F2F2F2"/>
<path d="M309.499 174.138C311.612 174.138 313.324 172.425 313.324 170.313C313.324 168.201 311.612 166.488 309.499 166.488C307.386 166.488 305.674 168.201 305.674 170.313C305.674 172.425 307.386 174.138 309.499 174.138Z" fill="#F2F2F2"/>
<path d="M309.499 189.382C311.612 189.382 313.324 187.669 313.324 185.557C313.324 183.445 311.612 181.732 309.499 181.732C307.386 181.732 305.674 183.445 305.674 185.557C305.674 187.669 307.386 189.382 309.499 189.382Z" fill="#F2F2F2"/>
<path d="M325.47 143.65C327.582 143.65 329.295 141.937 329.295 139.825C329.295 137.712 327.582 136 325.47 136C323.357 136 321.645 137.712 321.645 139.825C321.645 141.937 323.357 143.65 325.47 143.65Z" fill="#F2F2F2"/>
<path d="M325.47 158.894C327.582 158.894 329.295 157.181 329.295 155.069C329.295 152.957 327.582 151.244 325.47 151.244C323.357 151.244 321.645 152.957 321.645 155.069C321.645 157.181 323.357 158.894 325.47 158.894Z" fill="#F2F2F2"/>
<path d="M325.47 174.138C327.582 174.138 329.295 172.425 329.295 170.313C329.295 168.201 327.582 166.488 325.47 166.488C323.357 166.488 321.645 168.201 321.645 170.313C321.645 172.425 323.357 174.138 325.47 174.138Z" fill="#F2F2F2"/>
<path d="M325.47 189.382C327.582 189.382 329.295 187.669 329.295 185.557C329.295 183.445 327.582 181.732 325.47 181.732C323.357 181.732 321.645 183.445 321.645 185.557C321.645 187.669 323.357 189.382 325.47 189.382Z" fill="#F2F2F2"/>
<path d="M341.44 143.65C343.553 143.65 345.266 141.937 345.266 139.825C345.266 137.712 343.553 136 341.44 136C339.328 136 337.615 137.712 337.615 139.825C337.615 141.937 339.328 143.65 341.44 143.65Z" fill="#F2F2F2"/>
<path d="M341.44 158.894C343.553 158.894 345.266 157.181 345.266 155.069C345.266 152.957 343.553 151.244 341.44 151.244C339.328 151.244 337.615 152.957 337.615 155.069C337.615 157.181 339.328 158.894 341.44 158.894Z" fill="#F2F2F2"/>
<path d="M357.41 143.65C359.523 143.65 361.235 141.937 361.235 139.825C361.235 137.712 359.523 136 357.41 136C355.298 136 353.585 137.712 353.585 139.825C353.585 141.937 355.298 143.65 357.41 143.65Z" fill="#F2F2F2"/>
<path d="M357.41 158.894C359.523 158.894 361.235 157.181 361.235 155.069C361.235 152.957 359.523 151.244 357.41 151.244C355.298 151.244 353.585 152.957 353.585 155.069C353.585 157.181 355.298 158.894 357.41 158.894Z" fill="#F2F2F2"/>
<path d="M474.186 337.843H445.789C445.789 338.659 416.521 339.321 416.521 339.321C416.062 339.667 415.643 340.064 415.273 340.504C414.162 341.83 413.554 343.506 413.558 345.236V346.419C413.558 348.379 414.338 350.26 415.724 351.646C417.11 353.032 418.991 353.811 420.951 353.812H474.186C476.147 353.81 478.026 353.031 479.413 351.645C480.799 350.259 481.578 348.379 481.58 346.419V345.236C481.577 343.276 480.798 341.397 479.412 340.011C478.026 338.625 476.147 337.845 474.186 337.843Z" fill="#3F3D56"/>
<path d="M451.706 353.518H444.017V403.201H451.706V353.518Z" fill="#3F3D56"/>
<path d="M473.592 402.931C473.592 403.762 461.94 403.253 447.566 403.253C433.192 403.253 421.54 403.762 421.54 402.931C421.54 402.101 433.192 395.512 447.566 395.512C461.94 395.512 473.592 402.101 473.592 402.931Z" fill="#3F3D56"/>
<path d="M409.113 396.397L401.861 396.396L398.411 368.427L409.114 368.428L409.113 396.397Z" fill="#FFB8B8"/>
<path d="M396.681 394.324H410.666V403.129H387.875C387.875 400.794 388.803 398.555 390.454 396.903C392.105 395.252 394.345 394.324 396.681 394.324Z" fill="#2F2E41"/>
<path d="M397.793 392.349L390.874 390.178L395.956 362.459L406.168 365.664L397.793 392.349Z" fill="#FFB8B8"/>
<path d="M386.552 386.651L399.896 390.838L397.259 399.239L375.514 392.416C375.86 391.312 376.42 390.288 377.162 389.401C377.904 388.514 378.814 387.783 379.839 387.247C380.864 386.712 381.984 386.384 383.136 386.281C384.288 386.179 385.449 386.305 386.552 386.651Z" fill="#2F2E41"/>
<path d="M454.765 332.994C454.598 331.585 454.297 330.194 453.866 328.842L452.512 327.139L448.986 322.714L448.833 322.72C448.572 322.732 447.49 322.791 445.816 322.922H445.798C444.763 323.004 443.497 323.111 442.06 323.247C441.681 323.288 441.285 323.324 440.877 323.365V329.54H448.271C448.63 329.54 448.977 329.671 449.247 329.909C449.517 330.146 449.691 330.473 449.738 330.829C449.743 330.894 449.75 330.954 449.75 331.019C449.749 331.411 449.593 331.787 449.316 332.064C449.039 332.341 448.663 332.497 448.271 332.497H405.328C404.781 332.861 404.255 333.256 403.754 333.68C402.241 334.851 401.151 336.483 400.649 338.329C398.141 349.354 393.569 369.913 392.22 375.952C392.122 376.407 392.144 376.88 392.284 377.324C392.425 377.767 392.677 378.167 393.019 378.484C393.27 378.718 393.566 378.901 393.888 379.022L399.224 381.021C399.443 381.102 399.671 381.156 399.904 381.181C399.933 381.181 399.957 381.187 399.987 381.187C400.042 381.192 400.097 381.194 400.152 381.193C400.692 381.191 401.218 381.026 401.662 380.72C402.106 380.414 402.448 379.981 402.642 379.477L406.854 368.429L413.343 351.395L415.91 344.658C418.885 345.356 443.846 350.88 452.204 341.979C453.029 341.102 453.679 340.076 454.121 338.956C454.824 337.052 455.046 335.004 454.765 332.994Z" fill="#2F2E41"/>
<path d="M462.005 334.603C461.875 334.077 461.727 333.532 461.556 332.982L456.676 326.855L456.522 326.861C456.215 326.878 454.754 326.955 452.512 327.139C449.969 327.352 446.413 327.695 442.421 328.233C442.303 328.245 442.178 328.262 442.06 328.28C441.67 328.333 441.273 328.387 440.877 328.446V329.54H448.271C448.63 329.54 448.977 329.671 449.247 329.909C449.517 330.146 449.691 330.473 449.738 330.829C449.744 330.894 449.75 330.954 449.75 331.019C449.749 331.411 449.594 331.787 449.316 332.064C449.039 332.341 448.663 332.497 448.271 332.497H422.138C420.997 332.87 419.896 333.26 418.844 333.68C413.319 335.869 409.184 338.737 408.339 342.469C408.055 343.723 407.741 345.101 407.41 346.568C406.18 352.022 404.683 358.699 403.329 364.768V364.774C403.051 366.027 402.773 367.246 402.506 368.429C401.377 373.515 400.419 377.827 399.91 380.092C399.898 380.158 399.886 380.217 399.874 380.282V380.294C399.815 380.752 399.872 381.218 400.04 381.648L400.046 381.654V381.66C400.208 382.072 400.473 382.436 400.815 382.719C401.043 382.907 401.301 383.057 401.578 383.162L406.913 385.161C407.21 385.272 407.525 385.33 407.842 385.333C408.286 385.334 408.724 385.222 409.113 385.008C409.673 384.705 410.105 384.212 410.332 383.618L421.819 353.477L423.599 348.798C426.575 349.496 451.536 355.014 459.894 346.119C461.545 344.332 462.487 342.004 462.544 339.571C462.602 337.898 462.421 336.225 462.005 334.603Z" fill="#2F2E41"/>
<path d="M461.348 282.424C461.253 282.311 461.153 282.199 461.046 282.093C459.471 280.436 457.526 279.177 455.37 278.417C453.214 277.658 450.908 277.419 448.643 277.722C446.666 277.981 444.708 278.367 442.781 278.875C440.291 279.515 438.012 280.793 436.168 282.584C434.731 283.976 433.6 285.652 432.845 287.505C432.091 289.359 431.73 291.348 431.785 293.348C431.808 294.158 431.814 294.987 431.803 295.826C431.803 296.217 431.797 296.613 431.791 297.009H437.623C437.876 297.009 438.128 297.038 438.374 297.098C439.086 297.268 439.72 297.673 440.174 298.247C440.627 298.821 440.875 299.531 440.876 300.262V327.777C441.272 327.89 441.669 328.002 442.059 328.12C442.183 328.162 442.302 328.197 442.42 328.233C442.556 328.274 442.692 328.316 442.822 328.357C444.023 328.73 445.196 329.124 446.342 329.54H448.27C448.629 329.54 448.976 329.671 449.246 329.909C449.516 330.146 449.69 330.473 449.737 330.829C450.139 330.989 450.529 331.149 450.914 331.308C452.28 331.876 453.576 332.444 454.765 332.994C456.368 333.727 457.793 334.425 458.988 335.035C459.364 335.226 459.779 335.327 460.2 335.33C460.754 335.329 461.293 335.15 461.738 334.822C461.831 334.753 461.92 334.68 462.004 334.603C462.321 334.306 462.56 333.937 462.702 333.526C462.843 333.116 462.882 332.678 462.815 332.249C462.204 327.603 462.026 322.91 462.283 318.231C462.448 314.298 462.803 310.264 463.265 306.366C463.513 304.255 463.791 302.185 464.081 300.191C464.359 298.287 464.655 296.459 464.944 294.732C465.325 292.542 465.198 290.294 464.575 288.161C463.951 286.027 462.848 284.065 461.348 282.424Z" fill="#1D4ED8"/>
<path d="M437.103 282.909C436.799 282.779 436.487 282.67 436.168 282.584C434.592 282.159 432.915 282.316 431.445 283.025C429.975 283.734 428.808 284.948 428.159 286.446L424.096 295.826L423.587 297.009H437.623C437.876 297.009 438.128 297.038 438.374 297.098L438.848 296.004L440.646 291.852C441.36 290.196 441.388 288.324 440.724 286.648C440.06 284.971 438.757 283.626 437.103 282.909Z" fill="#1D4ED8"/>
<path d="M449.723 273.103C457.747 273.103 464.251 266.599 464.251 258.576C464.251 250.553 457.747 244.049 449.723 244.049C441.7 244.049 435.195 250.553 435.195 258.576C435.195 266.599 441.7 273.103 449.723 273.103Z" fill="#FFB8B8"/>
<path d="M464.081 300.191L455.789 300.416L455.185 306.242L455.049 307.591L442.06 313.423L440.877 313.955V324.323L442.06 323.986L445.798 322.921H445.816L462.283 318.231L462.472 318.178C463.803 317.794 464.974 316.99 465.812 315.888C466.649 314.785 467.109 313.441 467.122 312.056L467.163 305.178L467.199 300.109L464.081 300.191Z" fill="#FFB8B8"/>
<path d="M466.778 288.67C466.723 287.778 466.494 286.906 466.102 286.103C465.71 285.3 465.164 284.582 464.494 283.991C463.143 282.795 461.372 282.186 459.571 282.297C457.77 282.407 456.087 283.229 454.891 284.58C453.696 285.932 453.087 287.703 453.197 289.504L454.102 304.267C454.127 304.655 454.236 305.034 454.423 305.375C454.611 305.716 454.87 306.012 455.185 306.242C455.685 306.615 456.301 306.797 456.924 306.757L463.265 306.366L465.187 306.248C465.537 306.231 465.88 306.143 466.195 305.989C466.511 305.836 466.791 305.62 467.021 305.355C467.072 305.299 467.119 305.24 467.163 305.178C467.539 304.674 467.723 304.054 467.683 303.427L466.778 288.67Z" fill="#1D4ED8"/>
<path d="M442.823 328.357H442.06V328.28C441.669 328.333 441.273 328.387 440.877 328.446V329.54H446.342C445.195 329.126 444.022 328.732 442.823 328.357ZM442.823 328.357H442.06V328.28C441.669 328.333 441.273 328.387 440.877 328.446V329.54H446.342C445.195 329.126 444.022 328.732 442.823 328.357ZM448.271 328.357H442.06V300.262C442.058 299.301 441.744 298.365 441.164 297.598C440.585 296.83 439.772 296.27 438.848 296.004C438.451 295.884 438.038 295.824 437.624 295.826H384.98C383.804 295.828 382.677 296.296 381.845 297.127C381.013 297.959 380.545 299.086 380.544 300.262V329.244C380.544 330.421 381.012 331.549 381.844 332.381C382.676 333.212 383.804 333.68 384.98 333.68H448.271C448.926 333.679 449.558 333.437 450.046 332.999C450.533 332.562 450.843 331.96 450.915 331.308C450.927 331.212 450.933 331.116 450.932 331.019C450.931 330.313 450.651 329.637 450.152 329.138C449.653 328.639 448.976 328.358 448.271 328.357ZM449.749 331.019C449.749 331.411 449.593 331.787 449.316 332.064C449.039 332.341 448.663 332.497 448.271 332.497H384.98C384.118 332.497 383.29 332.154 382.68 331.544C382.07 330.934 381.727 330.107 381.727 329.244V300.262C381.727 299.4 382.07 298.573 382.68 297.963C383.29 297.353 384.118 297.01 384.98 297.009H437.624C437.877 297.009 438.129 297.038 438.375 297.098C439.087 297.268 439.72 297.673 440.174 298.247C440.628 298.821 440.876 299.531 440.877 300.262V329.54H448.271C448.63 329.54 448.977 329.672 449.247 329.909C449.517 330.146 449.691 330.473 449.738 330.829C449.743 330.894 449.749 330.954 449.749 331.019ZM442.823 328.357H442.06V328.28C441.669 328.333 441.273 328.387 440.877 328.446V329.54H446.342C445.195 329.126 444.022 328.732 442.823 328.357Z" fill="#3F3D56"/>
<path d="M411.3 318.303C413.26 318.303 414.849 316.714 414.849 314.754C414.849 312.794 413.26 311.205 411.3 311.205C409.34 311.205 407.751 312.794 407.751 314.754C407.751 316.714 409.34 318.303 411.3 318.303Z" fill="#1D4ED8"/>
<path d="M446.621 252.814C443.247 255.828 438.722 259.063 434.59 256.855C431.877 255.405 430.669 252.225 431.303 249.215C432.442 243.802 437.122 240.877 441.654 238.512C447.544 235.439 454.045 232.758 460.641 233.557C467.237 234.356 473.682 239.807 473.371 246.443C473.12 251.78 468.762 256.759 470.141 261.921C471.53 267.116 477.836 269.128 483.207 269.392C488.578 269.656 494.491 269.198 498.752 272.479C504.187 276.664 504.1 285.416 500.231 291.08C496.361 296.745 489.827 299.932 483.409 302.355C474.906 305.565 465.559 307.885 456.782 305.525C448.004 303.165 440.32 294.744 441.607 285.747C442.151 281.947 444.151 278.535 446.08 275.216C448.01 271.897 449.951 268.436 450.356 264.619C450.694 261.437 449.683 257.926 447.336 255.876C446.912 255.519 446.611 255.037 446.477 254.499C446.344 253.96 446.385 253.393 446.593 252.879L446.621 252.814Z" fill="#2F2E41"/>
<path d="M37.7044 404H495.108C495.295 404 495.474 403.926 495.606 403.794C495.738 403.662 495.812 403.483 495.812 403.296C495.812 403.109 495.738 402.93 495.606 402.798C495.474 402.666 495.295 402.592 495.108 402.592H37.7044C37.6117 402.591 37.5199 402.609 37.4342 402.645C37.3486 402.68 37.2707 402.732 37.2051 402.797C37.1394 402.863 37.0874 402.94 37.0519 403.026C37.0163 403.111 36.998 403.203 36.998 403.296C36.998 403.388 37.0163 403.48 37.0519 403.566C37.0874 403.651 37.1394 403.729 37.2051 403.795C37.2707 403.86 37.3486 403.912 37.4342 403.947C37.5199 403.982 37.6117 404 37.7044 404Z" fill="#3F3D56"/>
<path d="M60.9141 345.236V346.419C60.9158 348.379 61.6953 350.259 63.0815 351.645C64.4677 353.031 66.3474 353.81 68.3078 353.812H121.543C123.504 353.811 125.384 353.032 126.77 351.646C128.157 350.26 128.936 348.379 128.937 346.419V345.236C128.94 343.506 128.333 341.83 127.221 340.504C126.851 340.064 126.432 339.667 125.973 339.321C125.973 339.321 96.7056 338.659 96.7056 337.843H68.3078C66.3477 337.845 64.4686 338.625 63.0826 340.011C61.6966 341.397 60.9168 343.276 60.9141 345.236Z" fill="#3F3D56"/>
<path d="M90.788 403.201H98.4775V353.518H90.788V403.201Z" fill="#3F3D56"/>
<path d="M68.9023 402.931C68.9023 403.762 80.5546 403.253 94.9284 403.253C109.302 403.253 120.954 403.762 120.954 402.931C120.954 402.101 109.302 395.512 94.9284 395.512C80.5546 395.512 68.9023 402.101 68.9023 402.931Z" fill="#3F3D56"/>
<path d="M133.728 396.847H140.98L144.429 368.878L133.727 368.878L133.728 396.847Z" fill="#A0616A"/>
<path d="M154.966 403.579L132.175 403.58L132.175 394.775L146.16 394.775C148.495 394.775 150.735 395.702 152.386 397.353C154.038 399.005 154.966 401.244 154.966 403.579Z" fill="#2F2E41"/>
<path d="M145.048 392.8L151.967 390.629L146.885 362.91L136.673 366.114L145.048 392.8Z" fill="#A0616A"/>
<path d="M167.327 392.866L145.582 399.69L142.945 391.288L156.289 387.101C158.517 386.402 160.932 386.617 163.002 387.698C165.072 388.779 166.628 390.638 167.327 392.866Z" fill="#2F2E41"/>
<path d="M140.197 379.927L126.931 345.107C123.955 345.806 98.9964 351.328 90.6371 342.428C87.7724 339.378 87.2136 334.959 88.9764 329.293L93.8549 323.163L94.0065 323.171C95.851 323.268 139.218 325.699 142.191 338.779C144.697 349.807 149.275 370.366 150.618 376.405C150.754 377.031 150.661 377.685 150.356 378.247C150.05 378.81 149.553 379.244 148.954 379.471L143.619 381.471C143.321 381.583 143.006 381.641 142.689 381.641C142.149 381.641 141.622 381.477 141.177 381.171C140.732 380.865 140.39 380.431 140.197 379.927Z" fill="#2F2E41"/>
<path d="M132.507 384.067L119.241 349.247C116.265 349.946 91.307 355.468 82.9477 346.569C80.0829 343.518 79.5242 339.099 81.287 333.433L86.1654 327.303L86.3171 327.311C88.1616 327.408 131.529 329.839 134.501 342.919C137.008 353.947 141.585 374.507 142.929 380.546C143.065 381.171 142.972 381.825 142.666 382.388C142.361 382.95 141.863 383.385 141.264 383.611L135.929 385.612C135.632 385.724 135.317 385.781 134.999 385.781C134.459 385.781 133.932 385.617 133.487 385.311C133.042 385.005 132.701 384.571 132.507 384.067Z" fill="#2F2E41"/>
<path d="M120.575 316.511C118.609 316.511 116.677 315.999 114.967 315.028C113.258 314.056 111.831 312.657 110.824 310.968L106.611 303.832L116.625 298.359L120.877 304.188L149.727 301.149C149.867 300.895 150.025 300.651 150.199 300.419C150.753 299.691 151.454 299.087 152.256 298.648C153.058 298.208 153.944 297.942 154.856 297.868C155.772 297.789 156.694 297.907 157.561 298.215C158.427 298.522 159.218 299.011 159.88 299.649C160.941 300.667 161.627 302.013 161.826 303.469C162.026 304.925 161.728 306.406 160.98 307.672C160.512 308.46 159.883 309.141 159.133 309.669C158.384 310.198 157.531 310.562 156.632 310.738C155.732 310.913 154.805 310.897 153.912 310.69C153.019 310.483 152.179 310.089 151.449 309.535C151.279 309.406 151.117 309.268 150.962 309.121L123.33 316.166C122.43 316.395 121.504 316.511 120.575 316.511Z" fill="#A0616A"/>
<path d="M81.0996 335.272C80.7004 334.984 80.3886 334.592 80.1987 334.138C80.0088 333.684 79.9483 333.186 80.0239 332.7C81.6698 321.851 79.7761 306.309 77.8976 295.182C77.5131 292.924 77.6627 290.607 78.3345 288.418C79.0063 286.228 80.1816 284.227 81.7662 282.573C83.3508 280.919 85.3007 279.66 87.4597 278.895C89.6187 278.13 91.9268 277.882 94.199 278.17C96.1759 278.431 98.1343 278.817 100.062 279.326C103.265 280.132 106.098 282.004 108.096 284.635C110.093 287.265 111.136 290.496 111.054 293.798C110.773 304.535 112.953 317.933 113.904 323.194C113.969 323.556 113.958 323.926 113.873 324.284C113.789 324.641 113.631 324.977 113.411 325.271C113.194 325.561 112.92 325.803 112.605 325.982C112.289 326.16 111.94 326.27 111.58 326.306C101.046 327.381 89.6869 332.517 83.8533 335.483C83.4784 335.677 83.0629 335.778 82.641 335.78C82.0864 335.778 81.5467 335.6 81.0996 335.272Z" fill="#CCCCCC"/>
<path d="M109.533 307.289C109.208 307.161 108.911 306.97 108.66 306.726C108.408 306.483 108.208 306.192 108.07 305.871L102.196 292.301C101.84 291.481 101.649 290.599 101.635 289.706C101.62 288.812 101.782 287.924 102.11 287.093C102.439 286.262 102.928 285.504 103.55 284.862C104.172 284.22 104.914 283.707 105.734 283.352C106.554 282.997 107.436 282.807 108.33 282.793C109.224 282.779 110.111 282.942 110.942 283.271C111.773 283.6 112.531 284.09 113.172 284.712C113.814 285.334 114.326 286.077 114.681 286.898L120.555 300.467C120.835 301.115 120.846 301.847 120.586 302.503C120.326 303.159 119.817 303.686 119.17 303.967L111.57 307.256C111.25 307.396 110.905 307.471 110.555 307.477C110.205 307.482 109.858 307.418 109.533 307.289Z" fill="#CCCCCC"/>
<path d="M93.1177 273.554C101.141 273.554 107.646 267.05 107.646 259.027C107.646 251.004 101.141 244.5 93.1177 244.5C85.0942 244.5 78.5898 251.004 78.5898 259.027C78.5898 267.05 85.0942 273.554 93.1177 273.554Z" fill="#A0616A"/>
<path d="M84.3378 271.933C84.132 272.171 83.8807 272.364 83.5986 272.503C83.3166 272.642 83.0096 272.723 82.6958 272.741C82.382 272.759 82.0678 272.714 81.7717 272.608C81.4757 272.503 81.2038 272.339 80.9721 272.126C77.7326 269.504 75.1634 266.149 73.4764 262.338C71.5878 257.837 71.311 252.343 73.4605 248.124C75.2776 244.557 78.5395 242.286 81.7959 240.43C83.0442 239.644 84.4123 239.066 85.8463 238.718C86.5707 238.554 87.3214 238.543 88.0502 238.686C88.7791 238.83 89.4698 239.124 90.0779 239.55C90.7232 240.041 91.2227 240.698 91.5226 241.451C91.8225 242.205 91.9116 243.025 91.7803 243.825C93.2698 241.863 95.2779 240.356 97.5782 239.474C98.9896 238.867 100.566 238.761 102.046 239.175C104.138 239.873 105.685 241.984 106.547 244.253C107.243 245.99 107.499 247.873 107.289 249.732C107.198 250.62 106.927 251.48 106.493 252.26C106.059 253.04 105.471 253.724 104.764 254.27C103.058 255.447 100.861 255.327 98.877 254.806C96.8932 254.285 94.9679 253.402 92.9495 253.156C90.931 252.91 88.6941 253.443 87.4915 255.244C86.6446 256.511 86.4449 258.181 86.2721 259.773L85.3734 268.053C85.3099 269.237 85.0547 270.404 84.6177 271.507C84.5437 271.661 84.4496 271.804 84.3378 271.933Z" fill="#2F2E41"/>
<path d="M136.886 361.404H113.301C112.919 361.405 112.541 361.319 112.197 361.153C111.853 360.986 111.552 360.743 111.316 360.442C111.075 360.137 110.907 359.781 110.824 359.402C110.742 359.022 110.747 358.628 110.839 358.251C113.045 349.011 113.045 339.381 110.839 330.142C110.746 329.764 110.741 329.37 110.824 328.991C110.907 328.611 111.075 328.255 111.316 327.95C111.552 327.65 111.853 327.407 112.197 327.24C112.541 327.073 112.919 326.987 113.301 326.989H136.886C137.488 326.99 138.071 327.205 138.53 327.595C138.989 327.986 139.294 328.527 139.392 329.121C140.93 339.112 140.93 349.28 139.392 359.271C139.294 359.866 138.989 360.407 138.53 360.797C138.071 361.188 137.488 361.403 136.886 361.404Z" fill="#CCCCCC"/>
<path d="M118.784 339.81V339.116C118.785 338.646 118.972 338.195 119.304 337.862C119.637 337.53 120.088 337.343 120.559 337.342H132.935C133.405 337.343 133.857 337.53 134.189 337.862C134.522 338.195 134.709 338.646 134.709 339.116V339.81C134.709 340.28 134.522 340.731 134.189 341.064C133.857 341.396 133.405 341.583 132.935 341.584H120.559C120.088 341.583 119.637 341.396 119.304 341.064C118.972 340.731 118.785 340.28 118.784 339.81Z" fill="white"/>
<path d="M118.784 347.111V346.418C118.785 345.947 118.972 345.496 119.304 345.163C119.637 344.831 120.088 344.644 120.559 344.643H132.935C133.405 344.644 133.857 344.831 134.189 345.163C134.522 345.496 134.709 345.947 134.709 346.418V347.111C134.709 347.581 134.522 348.032 134.189 348.365C133.857 348.698 133.405 348.885 132.935 348.885H120.559C120.088 348.885 119.637 348.698 119.304 348.365C118.972 348.032 118.785 347.581 118.784 347.111Z" fill="white"/>
<path d="M126.392 318.669C126.147 318.359 125.976 317.997 125.892 317.611C125.808 317.225 125.813 316.825 125.906 316.441C128.149 307.05 128.149 297.262 125.906 287.87C125.812 287.486 125.807 287.086 125.892 286.7C125.976 286.314 126.147 285.953 126.392 285.643C126.632 285.337 126.938 285.09 127.288 284.921C127.637 284.751 128.021 284.664 128.409 284.665H152.381C152.994 284.666 153.586 284.885 154.052 285.282C154.519 285.679 154.829 286.229 154.928 286.833C156.492 296.988 156.492 307.323 154.928 317.478C154.829 318.083 154.519 318.633 154.052 319.03C153.586 319.426 152.994 319.645 152.381 319.646H128.409C128.021 319.647 127.637 319.56 127.288 319.391C126.938 319.221 126.632 318.974 126.392 318.669Z" fill="#1D4ED8"/>
<path d="M147.755 297.572H135.127C134.657 297.572 134.206 297.384 133.873 297.052C133.54 296.719 133.353 296.268 133.353 295.798V295.044C133.353 294.574 133.54 294.123 133.873 293.79C134.206 293.457 134.657 293.27 135.127 293.27H147.755C148.226 293.27 148.677 293.457 149.009 293.79C149.342 294.123 149.529 294.574 149.53 295.044V295.798C149.529 296.268 149.342 296.719 149.009 297.052C148.677 297.384 148.226 297.572 147.755 297.572Z" fill="white"/>
<path d="M147.755 304.993H135.127C134.657 304.993 134.206 304.806 133.873 304.473C133.54 304.141 133.353 303.69 133.353 303.219V302.466C133.353 301.995 133.54 301.544 133.873 301.211C134.206 300.879 134.657 300.692 135.127 300.691H147.755C148.226 300.692 148.677 300.879 149.009 301.211C149.342 301.544 149.529 301.995 149.53 302.466V303.219C149.529 303.69 149.342 304.141 149.009 304.473C148.677 304.806 148.226 304.993 147.755 304.993Z" fill="white"/>
<path d="M115.394 331.68C114.53 331.378 113.739 330.898 113.073 330.27C112.408 329.643 111.881 328.882 111.529 328.038C111.447 327.841 111.377 327.64 111.316 327.435L80.3679 318.626C79.038 318.242 77.8674 317.44 77.0297 316.338C76.1921 315.236 75.7321 313.893 75.7181 312.509L75.6426 300.56L87.0502 300.866L87.7936 308.043L114.258 319.923C114.507 319.775 114.766 319.643 115.033 319.53C116.008 319.122 117.068 318.956 118.121 319.049C119.174 319.141 120.189 319.488 121.077 320.061C121.966 320.633 122.702 321.413 123.222 322.333C123.742 323.253 124.03 324.286 124.061 325.343C124.093 326.4 123.866 327.448 123.402 328.397C122.937 329.347 122.249 330.169 121.395 330.793C120.542 331.417 119.55 331.823 118.504 331.978C117.459 332.132 116.391 332.03 115.394 331.68Z" fill="#A0616A"/>
<path d="M75.8192 305.806C75.5869 305.545 75.4087 305.24 75.295 304.909C75.1813 304.578 75.1343 304.228 75.1568 303.879L76.0642 289.121C76.1176 288.228 76.3465 287.355 76.7378 286.551C77.1291 285.747 77.675 285.028 78.3445 284.435C79.0139 283.842 79.7937 283.387 80.6392 283.096C81.4847 282.805 82.3793 282.683 83.2719 282.738C84.1644 282.793 85.0374 283.023 85.8408 283.416C86.6442 283.808 87.3623 284.356 87.954 285.026C88.5458 285.696 88.9995 286.477 89.2893 287.323C89.579 288.169 89.6991 289.064 89.6427 289.956L88.7355 304.715C88.6913 305.419 88.3695 306.077 87.8409 306.544C87.3123 307.011 86.6199 307.25 85.9155 307.208L77.6501 306.7C77.301 306.679 76.9594 306.59 76.6451 306.436C76.3309 306.283 76.0501 306.069 75.8192 305.806Z" fill="#CCCCCC"/>
<path d="M208.844 226.532H160.341C158.93 226.53 157.577 225.969 156.579 224.971C155.581 223.973 155.019 222.62 155.018 221.209V168.568C155.019 167.157 155.581 165.804 156.579 164.806C157.577 163.808 158.93 163.247 160.341 163.245H208.844C210.255 163.247 211.609 163.808 212.607 164.806C213.605 165.804 214.166 167.157 214.168 168.568V221.209C214.166 222.62 213.605 223.973 212.607 224.971C211.609 225.969 210.255 226.53 208.844 226.532ZM160.341 164.428C159.243 164.429 158.191 164.866 157.415 165.642C156.638 166.418 156.202 167.471 156.201 168.568V221.209C156.202 222.306 156.638 223.359 157.415 224.135C158.191 224.911 159.243 225.348 160.341 225.349H208.844C209.942 225.348 210.994 224.911 211.771 224.135C212.547 223.359 212.983 222.306 212.985 221.209V168.568C212.983 167.471 212.547 166.418 211.771 165.642C210.994 164.866 209.942 164.429 208.844 164.428H160.341Z" fill="#3F3D56"/>
<path d="M297.569 226.532H249.066C247.654 226.53 246.301 225.969 245.303 224.971C244.305 223.973 243.744 222.62 243.742 221.209V168.568C243.744 167.157 244.305 165.804 245.303 164.806C246.301 163.808 247.654 163.247 249.066 163.245H297.569C298.98 163.247 300.333 163.808 301.331 164.806C302.329 165.804 302.891 167.157 302.892 168.568V221.209C302.891 222.62 302.329 223.973 301.331 224.971C300.333 225.969 298.98 226.53 297.569 226.532ZM249.066 164.428C247.968 164.429 246.916 164.866 246.139 165.642C245.363 166.418 244.926 167.471 244.925 168.568V221.209C244.926 222.306 245.363 223.359 246.139 224.135C246.915 224.911 247.968 225.348 249.066 225.349H297.569C298.666 225.348 299.719 224.911 300.495 224.135C301.271 223.359 301.708 222.306 301.709 221.209V168.568C301.708 167.471 301.271 166.418 300.495 165.642C299.719 164.866 298.666 164.429 297.569 164.428H249.066Z" fill="#3F3D56"/>
<path d="M170.11 185.129H165.378C164.672 185.129 163.995 184.848 163.496 184.349C162.997 183.85 162.717 183.173 162.716 182.468V177.736C162.717 177.03 162.997 176.354 163.496 175.855C163.995 175.356 164.672 175.075 165.378 175.074H170.11C170.815 175.075 171.492 175.356 171.991 175.855C172.49 176.354 172.771 177.03 172.771 177.736V182.468C172.771 183.173 172.49 183.85 171.991 184.349C171.492 184.848 170.815 185.129 170.11 185.129Z" fill="#1D4ED8"/>
<path d="M170.11 199.916H165.378C164.672 199.915 163.995 199.635 163.496 199.136C162.997 198.637 162.717 197.96 162.716 197.254V192.523C162.717 191.817 162.997 191.14 163.496 190.642C163.995 190.143 164.672 189.862 165.378 189.861H170.11C170.815 189.862 171.492 190.143 171.991 190.642C172.49 191.14 172.771 191.817 172.771 192.523V197.254C172.771 197.96 172.49 198.637 171.991 199.136C171.492 199.635 170.815 199.915 170.11 199.916Z" fill="#CCCCCC"/>
<path d="M204.695 182.253H182.603C182.132 182.253 181.681 182.065 181.348 181.733C181.016 181.4 180.829 180.949 180.828 180.479V179.725C180.829 179.255 181.016 178.804 181.348 178.471C181.681 178.138 182.132 177.951 182.603 177.951H204.695C205.165 177.951 205.616 178.138 205.949 178.471C206.282 178.804 206.469 179.255 206.469 179.725V180.479C206.469 180.949 206.282 181.4 205.949 181.733C205.616 182.065 205.165 182.253 204.695 182.253Z" fill="#1D4ED8"/>
<path d="M259.242 184.202H254.51C253.805 184.201 253.128 183.92 252.629 183.421C252.13 182.922 251.849 182.246 251.849 181.54V176.808C251.849 176.103 252.13 175.426 252.629 174.927C253.128 174.428 253.805 174.148 254.51 174.147H259.242C259.948 174.148 260.625 174.428 261.124 174.927C261.623 175.426 261.903 176.103 261.904 176.808V181.54C261.903 182.246 261.623 182.922 261.124 183.421C260.625 183.92 259.948 184.201 259.242 184.202Z" fill="#CCCCCC"/>
<path d="M293.828 181.325H271.735C271.265 181.325 270.814 181.138 270.481 180.805C270.149 180.472 269.961 180.021 269.961 179.551V178.797C269.961 178.327 270.149 177.876 270.481 177.543C270.814 177.211 271.265 177.024 271.735 177.023H293.828C294.298 177.024 294.749 177.211 295.082 177.543C295.414 177.876 295.602 178.327 295.602 178.797V179.551C295.602 180.021 295.414 180.472 295.082 180.805C294.749 181.138 294.298 181.325 293.828 181.325Z" fill="#CCCCCC"/>
<path d="M293.828 195.521H252.808C252.337 195.52 251.886 195.333 251.554 195C251.221 194.668 251.034 194.217 251.033 193.746V192.993C251.034 192.522 251.221 192.071 251.554 191.739C251.886 191.406 252.337 191.219 252.808 191.218H293.828C294.298 191.219 294.749 191.406 295.082 191.739C295.415 192.071 295.602 192.522 295.602 192.993V193.746C295.602 194.217 295.415 194.668 295.082 195C294.749 195.333 294.298 195.52 293.828 195.521Z" fill="#1D4ED8"/>
<path d="M293.828 205.575H252.808C252.337 205.575 251.886 205.388 251.554 205.055C251.221 204.723 251.034 204.272 251.033 203.801V203.048C251.034 202.577 251.221 202.126 251.554 201.793C251.886 201.461 252.337 201.274 252.808 201.273H293.828C294.298 201.274 294.749 201.461 295.082 201.793C295.415 202.126 295.602 202.577 295.602 203.048V203.801C295.602 204.272 295.415 204.723 295.082 205.055C294.749 205.388 294.298 205.575 293.828 205.575Z" fill="#CCCCCC"/>
<path d="M293.828 215.63H252.808C252.337 215.63 251.886 215.443 251.554 215.11C251.221 214.777 251.034 214.326 251.033 213.856V213.103C251.034 212.632 251.221 212.181 251.554 211.848C251.886 211.516 252.337 211.329 252.808 211.328H293.828C294.298 211.329 294.749 211.516 295.082 211.848C295.415 212.181 295.602 212.632 295.602 213.103V213.856C295.602 214.326 295.415 214.777 295.082 215.11C294.749 215.443 294.298 215.63 293.828 215.63Z" fill="#CCCCCC"/>
<path d="M386.294 226.532H337.791C336.38 226.53 335.027 225.969 334.029 224.971C333.031 223.973 332.469 222.62 332.468 221.209V168.568C332.469 167.157 333.031 165.804 334.029 164.806C335.027 163.808 336.38 163.247 337.791 163.245H386.294C387.706 163.247 389.059 163.808 390.057 164.806C391.055 165.804 391.616 167.157 391.618 168.568V221.209C391.616 222.62 391.055 223.973 390.057 224.971C389.059 225.969 387.706 226.53 386.294 226.532ZM337.791 164.428C336.694 164.429 335.641 164.866 334.865 165.642C334.089 166.418 333.652 167.471 333.651 168.568V221.209C333.652 222.306 334.089 223.359 334.865 224.135C335.641 224.911 336.694 225.348 337.791 225.349H386.294C387.392 225.348 388.444 224.911 389.221 224.135C389.997 223.359 390.434 222.306 390.435 221.209V168.568C390.434 167.471 389.997 166.418 389.221 165.642C388.444 164.866 387.392 164.429 386.294 164.428H337.791Z" fill="#3F3D56"/>
<path d="M382.552 181.325H360.46C359.99 181.325 359.539 181.138 359.206 180.805C358.873 180.472 358.686 180.021 358.686 179.551V178.797C358.686 178.327 358.873 177.876 359.206 177.543C359.539 177.211 359.99 177.024 360.46 177.023H382.552C383.023 177.024 383.474 177.211 383.806 177.543C384.139 177.876 384.326 178.327 384.327 178.797V179.551C384.326 180.021 384.139 180.472 383.806 180.805C383.474 181.138 383.023 181.325 382.552 181.325Z" fill="#CCCCCC"/>
<path d="M382.552 195.521H341.532C341.062 195.52 340.611 195.333 340.278 195C339.945 194.668 339.758 194.217 339.758 193.746V192.993C339.758 192.522 339.945 192.071 340.278 191.739C340.611 191.406 341.062 191.219 341.532 191.218H382.552C383.023 191.219 383.474 191.406 383.807 191.739C384.139 192.071 384.326 192.522 384.327 192.993V193.746C384.326 194.217 384.139 194.668 383.807 195C383.474 195.333 383.023 195.52 382.552 195.521Z" fill="#CCCCCC"/>
<path d="M382.552 205.575H341.532C341.062 205.575 340.611 205.388 340.278 205.055C339.945 204.723 339.758 204.272 339.758 203.801V203.048C339.758 202.577 339.945 202.126 340.278 201.793C340.611 201.461 341.062 201.274 341.532 201.273H382.552C383.023 201.274 383.474 201.461 383.807 201.793C384.139 202.126 384.326 202.577 384.327 203.048V203.801C384.326 204.272 384.139 204.723 383.807 205.055C383.474 205.388 383.023 205.575 382.552 205.575Z" fill="#CCCCCC"/>
<path d="M382.552 215.63H341.532C341.062 215.63 340.611 215.443 340.278 215.11C339.945 214.777 339.758 214.326 339.758 213.856V213.103C339.758 212.632 339.945 212.181 340.278 211.848C340.611 211.516 341.062 211.329 341.532 211.328H382.552C383.023 211.329 383.474 211.516 383.807 211.848C384.139 212.181 384.326 212.632 384.327 213.103V213.856C384.326 214.326 384.139 214.777 383.807 215.11C383.474 215.443 383.023 215.63 382.552 215.63Z" fill="#CCCCCC"/>
<path d="M204.695 197.04H182.603C182.132 197.039 181.681 196.852 181.348 196.519C181.016 196.187 180.829 195.736 180.828 195.265V194.512C180.829 194.041 181.016 193.59 181.348 193.258C181.681 192.925 182.132 192.738 182.603 192.737H204.695C205.165 192.738 205.616 192.925 205.949 193.258C206.282 193.59 206.469 194.041 206.469 194.512V195.265C206.469 195.736 206.282 196.187 205.949 196.519C205.616 196.852 205.165 197.039 204.695 197.04Z" fill="#CCCCCC"/>
<path d="M170.11 214.703H165.378C164.672 214.702 163.995 214.421 163.496 213.922C162.997 213.423 162.717 212.747 162.716 212.041V207.309C162.717 206.604 162.997 205.927 163.496 205.428C163.995 204.929 164.672 204.648 165.378 204.648H170.11C170.815 204.648 171.492 204.929 171.991 205.428C172.49 205.927 172.771 206.604 172.771 207.309V212.041C172.771 212.747 172.49 213.423 171.991 213.922C171.492 214.421 170.815 214.702 170.11 214.703Z" fill="#CCCCCC"/>
<path d="M204.695 211.826H182.603C182.132 211.826 181.681 211.639 181.348 211.306C181.016 210.973 180.829 210.522 180.828 210.052V209.298C180.829 208.828 181.016 208.377 181.348 208.044C181.681 207.712 182.132 207.525 182.603 207.524H204.695C205.165 207.525 205.616 207.712 205.949 208.044C206.282 208.377 206.469 208.828 206.469 209.298V210.052C206.469 210.522 206.282 210.973 205.949 211.306C205.616 211.639 205.165 211.826 204.695 211.826Z" fill="#CCCCCC"/>
<path d="M350.802 178.623C350.802 178.61 350.804 178.596 350.804 178.583C350.804 177.884 350.666 177.191 350.399 176.546C350.131 175.9 349.739 175.313 349.245 174.819C348.75 174.324 348.164 173.932 347.518 173.665C346.872 173.397 346.18 173.26 345.48 173.26V178.623H350.802Z" fill="#1D4ED8"/>
<path d="M344.889 179.215V173.851C343.838 173.851 342.81 174.162 341.935 174.744C341.06 175.327 340.378 176.156 339.973 177.127C339.569 178.097 339.461 179.165 339.663 180.197C339.865 181.228 340.367 182.177 341.108 182.923C341.848 183.67 342.793 184.18 343.823 184.39C344.853 184.6 345.922 184.501 346.896 184.104C347.869 183.707 348.703 183.031 349.293 182.161C349.883 181.291 350.202 180.266 350.21 179.215H344.889Z" fill="#CCCCCC"/>
</g>
<defs>
<clipPath id="clip0_809_1733">
<rect width="466" height="268" fill="white" transform="translate(37 136)"/>
</clipPath>
</defs>
</svg>
