<svg width="540" height="540" viewBox="0 0 540 540" fill="none" xmlns="http://www.w3.org/2000/svg">
<rect width="540" height="540" fill="white"/>
<g clip-path="url(#clip0_809_1671)">
<path d="M377.347 365.283L365.543 376.131L374.924 360.417C367.533 347.037 355.446 335.473 355.446 335.473C355.446 335.473 330.369 359.459 330.369 378.314C330.369 397.168 341.596 403.752 355.446 403.752C369.295 403.752 380.523 397.168 380.523 378.314C380.523 374.117 379.278 369.667 377.347 365.283Z" fill="#F2F2F2"/>
<path d="M362.507 376.718V377.648C362.451 388.451 360.626 396.879 357.046 402.814C356.995 402.902 356.94 402.985 356.889 403.072L356.488 402.828L356.106 402.589C360.078 396.18 361.484 387.121 361.534 377.698C361.539 377.395 361.544 377.086 361.539 376.778C361.525 372.789 361.281 368.754 360.889 364.834C360.861 364.531 360.829 364.222 360.797 363.914C360.253 358.743 359.47 353.801 358.668 349.509C358.613 349.205 358.553 348.902 358.493 348.602C357.106 341.342 355.691 336.084 355.368 334.92C355.331 334.777 355.308 334.699 355.304 334.68L355.742 334.556L355.746 334.551L356.189 334.427C356.193 334.446 356.271 334.708 356.401 335.196C356.894 337.018 358.175 341.963 359.433 348.487C359.488 348.782 359.548 349.086 359.603 349.389C360.258 352.872 360.898 356.764 361.405 360.85C361.534 361.876 361.65 362.888 361.751 363.887C361.788 364.195 361.82 364.503 361.848 364.807C362.272 369.044 362.491 373.015 362.507 376.718Z" fill="white"/>
<path d="M359.431 348.488C359.123 348.529 358.809 348.571 358.491 348.603C357.628 348.692 356.76 348.736 355.892 348.736C352.192 348.741 348.539 347.917 345.201 346.325C345.007 346.569 344.813 346.813 344.615 347.062C348.127 348.773 351.984 349.661 355.892 349.656C356.819 349.656 357.745 349.607 358.666 349.509C358.98 349.477 359.293 349.436 359.602 349.39C362.151 349.025 364.629 348.275 366.952 347.167C366.754 346.914 366.561 346.666 366.372 346.422C364.173 347.448 361.834 348.144 359.431 348.488V348.488Z" fill="white"/>
<path d="M361.75 363.887C361.432 363.906 361.114 363.915 360.796 363.915C360.7 363.92 360.598 363.92 360.501 363.92C356.493 363.92 352.543 362.952 348.99 361.099C345.437 359.246 342.385 356.563 340.095 353.278C339.911 353.549 339.727 353.821 339.547 354.097C341.934 357.42 345.079 360.129 348.724 361.997C352.368 363.865 356.405 364.84 360.501 364.84C360.63 364.84 360.76 364.84 360.889 364.835C361.211 364.83 361.529 364.821 361.847 364.807C366.768 364.556 371.511 362.895 375.511 360.023C375.364 359.751 375.216 359.48 375.064 359.208C371.177 362.028 366.55 363.654 361.75 363.887V363.887Z" fill="white"/>
<path d="M362.506 376.718C362.184 376.746 361.861 376.764 361.538 376.778C361.193 376.792 360.847 376.801 360.502 376.801C355.115 376.795 349.875 375.047 345.567 371.819C341.258 368.591 338.113 364.057 336.602 358.895C336.395 359.267 336.187 359.635 335.989 360.008C337.692 365.158 340.977 369.641 345.377 372.821C349.777 376.001 355.069 377.716 360.502 377.721C360.847 377.721 361.193 377.717 361.534 377.698C361.861 377.689 362.184 377.671 362.506 377.648C369.022 377.139 375.101 374.177 379.511 369.362C379.415 369.021 379.304 368.685 379.193 368.345C374.933 373.196 368.948 376.2 362.506 376.718V376.718Z" fill="white"/>
<path d="M334.899 193.947L206.514 177.605C206.168 177.561 205.819 177.539 205.471 177.538C205.127 177.537 204.784 177.559 204.443 177.603C204.102 177.646 203.765 177.712 203.434 177.8C203.098 177.889 202.769 178 202.447 178.132C202.133 178.261 201.826 178.409 201.529 178.575C201.228 178.742 200.938 178.927 200.659 179.129C200.373 179.336 200.1 179.559 199.84 179.796C199.572 180.041 199.316 180.3 199.076 180.572C198.829 180.852 198.596 181.144 198.379 181.448C198.16 181.755 197.954 182.075 197.761 182.408C197.569 182.741 197.391 183.088 197.226 183.448C197.062 183.808 196.911 184.18 196.776 184.564C196.635 184.962 196.512 185.368 196.406 185.783C196.3 186.198 196.212 186.62 196.141 187.049C196.072 187.478 196.018 187.914 195.981 188.357C195.944 188.801 195.926 189.249 195.926 189.703C195.927 190.156 195.946 190.608 195.981 191.058C196.017 191.509 196.07 191.956 196.141 192.399C196.213 192.844 196.302 193.284 196.407 193.72C196.513 194.156 196.636 194.587 196.777 195.013C196.912 195.425 197.063 195.827 197.227 196.22C197.392 196.613 197.57 196.996 197.763 197.368C197.955 197.739 198.161 198.101 198.38 198.451C198.599 198.803 198.831 199.141 199.077 199.467C199.322 199.792 199.577 200.102 199.841 200.398C200.105 200.691 200.378 200.968 200.66 201.228C200.942 201.489 201.232 201.732 201.53 201.958C201.826 202.182 202.132 202.39 202.448 202.583C202.767 202.777 203.096 202.953 203.435 203.11C203.763 203.263 204.1 203.396 204.444 203.51C204.781 203.621 205.124 203.711 205.472 203.78C205.816 203.849 206.164 203.896 206.515 203.922L334.9 213.297C335.274 213.325 335.649 213.287 336.01 213.187C336.194 213.136 336.373 213.07 336.545 212.989C336.726 212.906 336.899 212.809 337.065 212.699C337.233 212.587 337.394 212.465 337.546 212.333C337.705 212.194 337.856 212.047 337.998 211.89C338.148 211.725 338.29 211.552 338.421 211.372C338.558 211.186 338.689 210.989 338.815 210.779C338.94 210.569 339.059 210.351 339.171 210.123C339.283 209.895 339.388 209.658 339.486 209.413C339.584 209.168 339.675 208.914 339.758 208.652C339.841 208.39 339.917 208.12 339.985 207.842C340.057 207.555 340.12 207.263 340.172 206.965C340.224 206.667 340.268 206.365 340.305 206.059C340.341 205.752 340.368 205.442 340.386 205.127C340.404 204.813 340.412 204.495 340.412 204.173C340.411 203.852 340.402 203.532 340.386 203.214C340.369 202.896 340.342 202.58 340.305 202.266C340.269 201.953 340.225 201.642 340.172 201.334C340.118 201.025 340.056 200.72 339.985 200.419C339.917 200.127 339.841 199.842 339.758 199.564C339.675 199.289 339.585 199.018 339.486 198.752C339.387 198.485 339.282 198.227 339.171 197.976C339.06 197.726 338.941 197.484 338.815 197.249C338.689 197.013 338.558 196.79 338.421 196.577C338.285 196.365 338.144 196.164 337.998 195.974C337.852 195.783 337.701 195.606 337.546 195.44C337.394 195.277 337.233 195.123 337.065 194.978C336.9 194.836 336.727 194.704 336.545 194.583C336.374 194.469 336.195 194.367 336.01 194.278C335.833 194.193 335.649 194.122 335.461 194.066C335.277 194.011 335.089 193.971 334.899 193.947" fill="#1D4ED8"/>
<path d="M334.968 229.029L206.582 225.959C205.885 225.942 205.19 226.013 204.511 226.17C204.169 226.25 203.832 226.35 203.502 226.472C203.165 226.596 202.835 226.74 202.516 226.904C202.2 227.065 201.893 227.244 201.598 227.44C201.296 227.639 201.006 227.855 200.727 228.085C200.442 228.322 200.168 228.573 199.908 228.837C199.644 229.106 199.389 229.392 199.144 229.695C198.899 229.998 198.667 230.314 198.447 230.643C198.228 230.972 198.022 231.313 197.83 231.667C197.637 232.02 197.459 232.385 197.294 232.762C197.13 233.139 196.98 233.527 196.844 233.925C196.703 234.338 196.58 234.757 196.475 235.182C196.369 235.608 196.28 236.039 196.209 236.476C196.14 236.913 196.087 237.355 196.05 237.802C196.013 238.248 195.994 238.699 195.994 239.152C195.996 239.606 196.014 240.056 196.05 240.503C196.085 240.949 196.138 241.39 196.209 241.827C196.281 242.261 196.37 242.691 196.476 243.116C196.581 243.54 196.705 243.959 196.845 244.37C196.981 244.77 197.131 245.158 197.296 245.534C197.46 245.909 197.639 246.273 197.831 246.626C198.023 246.978 198.229 247.318 198.448 247.645C198.667 247.972 198.9 248.285 199.145 248.587C199.391 248.888 199.645 249.172 199.909 249.439C200.169 249.702 200.443 249.951 200.728 250.186C201.007 250.415 201.297 250.628 201.599 250.826C201.895 251.02 202.201 251.197 202.517 251.356C202.837 251.518 203.166 251.66 203.503 251.782C203.833 251.901 204.17 252 204.512 252.077C204.851 252.154 205.194 252.21 205.54 252.243C205.887 252.276 206.235 252.288 206.583 252.277L334.968 248.377C335.156 248.372 335.344 248.35 335.529 248.313C335.716 248.275 335.9 248.222 336.078 248.154C336.263 248.083 336.442 247.999 336.614 247.901C336.795 247.798 336.968 247.683 337.133 247.557C337.302 247.428 337.462 247.289 337.614 247.141C337.773 246.986 337.924 246.823 338.067 246.652C338.212 246.477 338.353 246.29 338.49 246.09C338.626 245.889 338.757 245.678 338.883 245.457C339.009 245.234 339.128 245.002 339.24 244.763C339.352 244.524 339.457 244.277 339.554 244.021C339.652 243.761 339.743 243.497 339.826 243.229C339.909 242.96 339.985 242.683 340.054 242.398C340.126 242.106 340.188 241.809 340.24 241.506C340.292 241.202 340.337 240.896 340.374 240.586C340.41 240.274 340.436 239.961 340.454 239.644C340.472 239.328 340.481 239.009 340.481 238.687C340.48 238.368 340.471 238.05 340.454 237.732C340.437 237.414 340.411 237.101 340.374 236.791C340.338 236.48 340.293 236.174 340.24 235.872C340.187 235.57 340.125 235.272 340.054 234.976C339.985 234.691 339.909 234.414 339.826 234.144C339.742 233.873 339.652 233.611 339.554 233.356C339.457 233.101 339.352 232.854 339.24 232.616C339.128 232.377 339.009 232.146 338.884 231.925C338.758 231.703 338.626 231.493 338.49 231.294C338.354 231.095 338.213 230.908 338.067 230.734C337.925 230.563 337.774 230.401 337.614 230.247C337.463 230.1 337.302 229.962 337.134 229.835C336.969 229.709 336.795 229.595 336.614 229.494C336.442 229.397 336.263 229.314 336.078 229.245C335.9 229.179 335.716 229.127 335.529 229.09C335.344 229.054 335.156 229.033 334.968 229.029Z" fill="#E4E4E4"/>
<path d="M334.899 265.354L206.514 274.728C206.163 274.753 205.815 274.801 205.471 274.869C205.123 274.938 204.78 275.029 204.443 275.14C204.099 275.253 203.762 275.387 203.434 275.539C203.095 275.697 202.766 275.873 202.447 276.067C202.131 276.26 201.824 276.468 201.529 276.692C201.23 276.92 200.94 277.163 200.659 277.421C200.377 277.681 200.104 277.958 199.84 278.252C199.576 278.546 199.321 278.856 199.076 279.183C198.83 279.51 198.598 279.849 198.379 280.2C198.16 280.55 197.954 280.911 197.761 281.283C197.569 281.655 197.391 282.038 197.226 282.431C197.062 282.823 196.911 283.226 196.776 283.637C196.635 284.063 196.512 284.494 196.406 284.931C196.3 285.367 196.212 285.807 196.141 286.25C196.072 286.694 196.018 287.141 195.981 287.591C195.944 288.041 195.926 288.493 195.926 288.947C195.927 289.401 195.946 289.849 195.981 290.292C196.017 290.735 196.07 291.171 196.141 291.601C196.213 292.031 196.302 292.454 196.407 292.868C196.513 293.282 196.636 293.688 196.777 294.086C196.912 294.471 197.063 294.843 197.227 295.203C197.392 295.563 197.57 295.91 197.763 296.243C197.955 296.576 198.161 296.896 198.38 297.203C198.597 297.507 198.83 297.799 199.077 298.079C199.317 298.351 199.573 298.61 199.841 298.854C200.101 299.092 200.375 299.315 200.66 299.522C200.939 299.723 201.23 299.908 201.53 300.075C201.827 300.242 202.134 300.39 202.448 300.519C202.77 300.65 203.099 300.761 203.435 300.851C203.766 300.938 204.104 301.004 204.444 301.048C204.785 301.092 205.128 301.113 205.472 301.113C205.82 301.112 206.169 301.09 206.515 301.045L334.899 284.708C335.089 284.684 335.277 284.644 335.461 284.589C335.649 284.532 335.833 284.461 336.01 284.376C336.195 284.287 336.374 284.185 336.545 284.072C336.727 283.951 336.9 283.819 337.065 283.677C337.233 283.531 337.394 283.377 337.546 283.215C337.699 283.049 337.85 282.871 337.998 282.681C338.144 282.491 338.285 282.29 338.421 282.077C338.558 281.865 338.689 281.641 338.815 281.406C338.94 281.173 339.059 280.93 339.171 280.678C339.283 280.426 339.388 280.168 339.486 279.903C339.584 279.637 339.675 279.364 339.758 279.086C339.841 278.808 339.917 278.523 339.985 278.231C340.057 277.929 340.12 277.624 340.172 277.315C340.224 277.007 340.268 276.696 340.305 276.383C340.341 276.069 340.368 275.753 340.386 275.435C340.404 275.117 340.412 274.797 340.412 274.475C340.411 274.156 340.402 273.838 340.385 273.524C340.369 273.209 340.342 272.899 340.305 272.592C340.269 272.285 340.225 271.982 340.172 271.685C340.118 271.387 340.056 271.095 339.985 270.807C339.917 270.529 339.841 270.259 339.758 269.998C339.676 269.736 339.585 269.482 339.487 269.237C339.388 268.991 339.283 268.754 339.172 268.527C339.059 268.301 338.94 268.083 338.814 267.872C338.688 267.662 338.556 267.464 338.42 267.279C338.288 267.099 338.147 266.926 337.997 266.761C337.855 266.605 337.704 266.457 337.544 266.318C337.392 266.186 337.232 266.064 337.064 265.952C336.898 265.843 336.725 265.745 336.544 265.662C336.371 265.581 336.192 265.516 336.009 265.465C335.648 265.364 335.273 265.327 334.899 265.354" fill="#E4E4E4"/>
<path d="M264.921 267.072C265.734 268.422 267.016 269.427 268.522 269.896C270.029 270.365 271.655 270.265 273.093 269.616C274.53 268.966 275.679 267.813 276.321 266.374C276.963 264.934 277.053 263.31 276.574 261.809L301.457 210.774L289.546 203.565L268.057 257.775C267.975 257.807 267.894 257.841 267.815 257.875C267.735 257.91 267.656 257.947 267.577 257.985C267.498 258.023 267.419 258.063 267.341 258.105C267.263 258.147 267.186 258.191 267.109 258.237C265.646 259.119 264.593 260.545 264.183 262.202C263.772 263.859 264.038 265.61 264.921 267.072L264.921 267.072Z" fill="#9E616A"/>
<path d="M296.707 230.453L279.03 225.93C279.03 225.93 279.607 224.627 280.545 222.469C281.483 220.312 282.794 217.303 284.268 213.886C285.742 210.47 287.378 206.653 288.976 202.88C290.573 199.106 292.127 195.378 293.436 192.147C294.745 188.916 296.231 186.98 297.725 185.896C298.962 184.957 300.519 184.544 302.059 184.745C303.256 184.923 304.401 185.358 305.413 186.02C305.893 186.318 306.343 186.659 306.759 187.04L310.858 194.481L296.707 230.453Z" fill="#CCCCCC"/>
<path d="M155.241 226.412C154.813 226.443 154.387 226.499 153.965 226.578C153.54 226.657 153.121 226.76 152.707 226.886C152.288 227.014 151.876 227.164 151.473 227.337C151.06 227.513 150.657 227.711 150.265 227.929C149.881 228.144 149.507 228.379 149.14 228.631C148.774 228.884 148.419 229.156 148.074 229.447C147.729 229.737 147.394 230.046 147.07 230.374C146.746 230.702 146.433 231.048 146.133 231.412C145.832 231.776 145.547 232.153 145.278 232.544C145.008 232.934 144.756 233.336 144.52 233.75C144.286 234.165 144.068 234.59 143.864 235.028C143.661 235.465 143.476 235.912 143.309 236.37C143.136 236.844 142.984 237.323 142.854 237.808C142.724 238.292 142.615 238.781 142.528 239.273C142.441 239.766 142.376 240.262 142.332 240.761C142.288 241.26 142.267 241.761 142.267 242.264C142.267 242.768 142.288 243.265 142.332 243.755C142.376 244.245 142.441 244.728 142.528 245.203C142.615 245.678 142.724 246.145 142.854 246.603C142.984 247.061 143.135 247.51 143.308 247.95C143.476 248.374 143.661 248.784 143.863 249.181C144.062 249.573 144.281 249.955 144.519 250.326C144.754 250.69 145.007 251.041 145.277 251.378C145.545 251.714 145.831 252.035 146.133 252.34C146.429 252.641 146.742 252.925 147.07 253.191C147.391 253.452 147.726 253.695 148.074 253.918C148.761 254.359 149.496 254.721 150.265 254.995C151.054 255.276 151.873 255.462 152.706 255.549C153.124 255.592 153.544 255.61 153.964 255.604C154.391 255.598 154.816 255.568 155.24 255.514C155.667 255.459 156.091 255.382 156.509 255.281C156.929 255.179 157.343 255.055 157.749 254.909C158.16 254.761 158.562 254.591 158.955 254.401C159.356 254.207 159.746 253.993 160.125 253.76C160.494 253.53 160.853 253.284 161.202 253.021C161.552 252.758 161.89 252.478 162.218 252.18C162.545 251.883 162.862 251.569 163.167 251.239C163.472 250.909 163.765 250.562 164.047 250.2C164.33 249.838 164.597 249.464 164.847 249.08C165.097 248.696 165.331 248.302 165.549 247.898C165.767 247.494 165.969 247.08 166.155 246.657C166.34 246.234 166.51 245.802 166.662 245.361C166.821 244.905 166.959 244.444 167.078 243.98C167.197 243.516 167.296 243.049 167.375 242.578C167.454 242.107 167.514 241.633 167.554 241.157C167.594 240.681 167.614 240.204 167.614 239.724C167.613 239.244 167.593 238.769 167.554 238.301C167.514 237.833 167.455 237.372 167.375 236.917C167.296 236.463 167.197 236.015 167.078 235.574C166.959 235.133 166.82 234.701 166.662 234.277C166.509 233.866 166.34 233.468 166.155 233.082C165.967 232.697 165.764 232.324 165.546 231.962C165.114 231.247 164.612 230.577 164.047 229.961C163.769 229.658 163.477 229.37 163.169 229.098C162.867 228.83 162.55 228.58 162.22 228.346C161.894 228.115 161.554 227.902 161.204 227.709C160.854 227.515 160.494 227.342 160.125 227.188C159.362 226.871 158.565 226.645 157.749 226.515C157.339 226.45 156.925 226.409 156.51 226.392C156.086 226.375 155.663 226.382 155.24 226.413" fill="#E4E4E4"/>
<path d="M155.241 278.471C154.813 278.503 154.387 278.558 153.965 278.637C153.54 278.717 153.121 278.819 152.707 278.945C152.288 279.073 151.876 279.224 151.473 279.396C151.06 279.572 150.657 279.77 150.265 279.989C149.881 280.204 149.507 280.438 149.14 280.691C148.774 280.944 148.419 281.216 148.074 281.506C147.729 281.796 147.394 282.105 147.07 282.433C146.746 282.762 146.433 283.108 146.133 283.472C145.832 283.836 145.547 284.213 145.278 284.603C145.008 284.993 144.756 285.395 144.52 285.809C144.286 286.224 144.068 286.65 143.864 287.087C143.661 287.524 143.476 287.972 143.309 288.429C143.136 288.903 142.984 289.383 142.854 289.867C142.724 290.352 142.615 290.84 142.528 291.333C142.441 291.825 142.376 292.321 142.332 292.82C142.288 293.319 142.267 293.821 142.267 294.324C142.267 294.827 142.288 295.324 142.332 295.814C142.376 296.305 142.441 296.787 142.528 297.263C142.615 297.738 142.724 298.204 142.854 298.663C142.984 299.121 143.135 299.57 143.308 300.009C143.476 300.433 143.661 300.844 143.863 301.24C144.062 301.633 144.281 302.015 144.519 302.385C144.754 302.749 145.007 303.1 145.277 303.438C145.545 303.773 145.831 304.094 146.133 304.4C146.429 304.7 146.742 304.984 147.07 305.25C147.391 305.511 147.726 305.754 148.074 305.978C148.761 306.419 149.496 306.78 150.265 307.054C151.054 307.336 151.873 307.521 152.706 307.608C153.124 307.651 153.544 307.67 153.964 307.663C154.391 307.657 154.816 307.627 155.24 307.573C155.667 307.519 156.091 307.441 156.509 307.34C156.929 307.239 157.343 307.115 157.749 306.968C158.16 306.82 158.562 306.651 158.955 306.461C159.356 306.267 159.746 306.053 160.125 305.819C160.494 305.59 160.853 305.343 161.202 305.08C161.552 304.817 161.89 304.537 162.218 304.24C162.545 303.942 162.862 303.628 163.167 303.298C163.472 302.968 163.765 302.622 164.047 302.259C164.33 301.897 164.597 301.524 164.847 301.14C165.097 300.756 165.331 300.362 165.549 299.957C165.767 299.553 165.969 299.139 166.155 298.716C166.34 298.293 166.51 297.861 166.662 297.42C166.821 296.964 166.959 296.504 167.078 296.04C167.197 295.576 167.296 295.108 167.375 294.637C167.454 294.166 167.514 293.693 167.554 293.217C167.594 292.741 167.614 292.263 167.614 291.783C167.613 291.303 167.593 290.829 167.554 290.361C167.514 289.893 167.455 289.431 167.375 288.976C167.296 288.522 167.197 288.075 167.078 287.634C166.959 287.193 166.82 286.76 166.662 286.336C166.509 285.926 166.34 285.527 166.155 285.141C165.967 284.757 165.764 284.383 165.546 284.022C165.114 283.307 164.612 282.636 164.047 282.021C163.769 281.718 163.477 281.43 163.169 281.157C162.867 280.89 162.55 280.639 162.22 280.406C161.894 280.175 161.554 279.962 161.204 279.768C160.854 279.575 160.494 279.401 160.125 279.248C159.362 278.931 158.565 278.705 157.749 278.575C157.339 278.509 156.925 278.468 156.51 278.451C156.086 278.434 155.663 278.441 155.24 278.472" fill="#E4E4E4"/>
<path d="M155.243 170.014C154.817 170.004 154.392 170.018 153.967 170.056C153.545 170.094 153.125 170.156 152.71 170.242C152.292 170.329 151.88 170.44 151.475 170.574C151.064 170.71 150.661 170.869 150.267 171.05C149.882 171.227 149.507 171.424 149.143 171.641C148.775 171.86 148.419 172.097 148.076 172.353C147.727 172.613 147.392 172.89 147.072 173.184C146.746 173.482 146.433 173.799 146.133 174.134C145.832 174.468 145.547 174.818 145.278 175.183C145.009 175.547 144.756 175.925 144.52 176.316C144.285 176.712 144.066 177.118 143.863 177.533C143.659 177.949 143.474 178.379 143.308 178.822C143.136 179.278 142.984 179.743 142.854 180.215C142.724 180.686 142.615 181.164 142.529 181.648C142.441 182.134 142.376 182.624 142.332 183.117C142.289 183.611 142.267 184.109 142.267 184.613C142.267 185.115 142.289 185.613 142.332 186.108C142.376 186.602 142.441 187.091 142.529 187.575C142.615 188.059 142.724 188.536 142.854 189.007C142.984 189.477 143.136 189.941 143.308 190.397C143.476 190.837 143.661 191.265 143.863 191.682C144.066 192.096 144.286 192.498 144.522 192.888C144.758 193.278 145.01 193.654 145.28 194.017C145.548 194.38 145.833 194.728 146.134 195.06C146.435 195.392 146.748 195.706 147.072 196.001C147.391 196.294 147.724 196.57 148.071 196.829C148.414 197.082 148.77 197.318 149.138 197.534C149.502 197.748 149.877 197.943 150.262 198.118C150.656 198.296 151.059 198.452 151.47 198.586C152.279 198.847 153.115 199.014 153.962 199.084C154.811 199.154 155.664 199.128 156.507 199.007C156.925 198.947 157.339 198.863 157.747 198.756C158.156 198.648 158.559 198.517 158.953 198.365C159.352 198.21 159.743 198.034 160.123 197.837C160.493 197.645 160.853 197.434 161.202 197.205C161.553 196.974 161.892 196.727 162.218 196.462C162.546 196.196 162.862 195.913 163.167 195.613C163.472 195.312 163.766 194.994 164.047 194.659C164.33 194.324 164.597 193.976 164.847 193.617C165.097 193.257 165.331 192.886 165.549 192.502C165.768 192.119 165.97 191.725 166.155 191.32C166.34 190.915 166.509 190.5 166.663 190.075C166.821 189.635 166.959 189.188 167.078 188.735C167.197 188.283 167.296 187.825 167.375 187.362C167.455 186.897 167.514 186.428 167.554 185.956C167.594 185.484 167.614 185.008 167.614 184.528C167.614 184.048 167.594 183.572 167.554 183.1C167.514 182.628 167.455 182.161 167.375 181.698C167.296 181.236 167.197 180.778 167.078 180.326C166.959 179.874 166.82 179.428 166.663 178.988C166.509 178.563 166.34 178.148 166.155 177.744C165.97 177.341 165.767 176.947 165.546 176.564C165.328 176.185 165.094 175.816 164.844 175.457C164.594 175.098 164.328 174.752 164.047 174.42C163.767 174.088 163.475 173.772 163.169 173.473C162.864 173.174 162.547 172.893 162.22 172.63C161.894 172.367 161.556 172.121 161.205 171.892C160.856 171.665 160.496 171.457 160.125 171.267C159.746 171.072 159.355 170.898 158.956 170.746C158.561 170.596 158.159 170.468 157.75 170.363C157.341 170.258 156.927 170.177 156.51 170.119C156.089 170.061 155.665 170.027 155.24 170.017L155.243 170.014ZM155.24 168.632C157.104 168.683 158.932 169.155 160.586 170.013C162.23 170.871 163.687 172.046 164.873 173.471C166.113 174.955 167.078 176.647 167.724 178.469C169.108 182.39 169.108 186.665 167.724 190.586C167.077 192.413 166.112 194.111 164.873 195.603C163.687 197.034 162.23 198.217 160.585 199.086C158.933 199.954 157.106 200.438 155.24 200.502C153.362 200.563 151.496 200.192 149.786 199.416C148.059 198.627 146.514 197.49 145.248 196.076C143.904 194.579 142.852 192.845 142.146 190.962C140.618 186.863 140.618 182.352 142.146 178.253C142.853 176.365 143.905 174.624 145.248 173.119C146.514 171.698 148.058 170.551 149.786 169.75C151.495 168.964 153.362 168.58 155.243 168.63L155.24 168.632Z" fill="#1D4ED8"/>
<path d="M155.244 188.483L150.874 179.395L151.911 178.721L155.511 186.187L170.623 168.453L171.538 169.426L155.244 188.483Z" fill="#1D4ED8"/>
<path d="M314.272 367.911L303.454 367.869L306.942 396.089L314.272 396.125V367.911Z" fill="#9E616A"/>
<path d="M316.141 403.226L292.521 403.101V402.803C292.521 402.198 292.58 401.594 292.698 401.001C292.93 399.829 293.393 398.716 294.06 397.725C294.737 396.72 295.605 395.858 296.614 395.187C297.61 394.526 298.728 394.069 299.902 393.842C300.498 393.728 301.103 393.672 301.709 393.676V393.676L316.141 393.746V403.226Z" fill="#2F2E41"/>
<path d="M279.638 367.777L268.852 367.735L272.329 395.916L279.638 395.953V367.777Z" fill="#9E616A"/>
<path d="M281.501 403.042L257.943 402.919V402.621C257.943 402.017 258.002 401.414 258.12 400.821C258.351 399.651 258.813 398.54 259.478 397.549C260.153 396.546 261.019 395.684 262.026 395.014C263.02 394.354 264.134 393.898 265.306 393.672C265.9 393.558 266.503 393.502 267.108 393.506V393.506L281.501 393.576V403.042Z" fill="#2F2E41"/>
<path d="M279.178 252.438L261.04 320.017L267.679 384.797L282.38 385.202L279.179 326.709L297.518 297.519L301.496 385.6L314.83 384.658L322.248 308.927C324.768 303.013 326.616 296.837 327.757 290.513C328.654 285.548 329.09 280.512 329.06 275.468C329.045 272.072 328.784 268.682 328.278 265.323C328.097 264.072 327.853 262.83 327.545 261.604L322.137 256.13L279.178 252.438Z" fill="#2F2E41"/>
<path d="M303.21 263.741C300.16 263.741 297.297 263.643 294.702 263.45C292.051 263.268 289.414 262.922 286.806 262.412C284.585 261.998 282.423 261.319 280.365 260.388C278.709 259.674 277.269 258.539 276.188 257.097L276.064 256.917L281.022 224.705L286.369 188.486C286.72 186.09 287.943 183.906 289.803 182.35C291.663 180.795 294.031 179.977 296.457 180.052L313.2 180.564C314.456 180.602 315.691 180.892 316.833 181.416C317.974 181.94 318.998 182.687 319.845 183.613C320.692 184.54 321.344 185.627 321.762 186.809C322.18 187.992 322.356 189.246 322.28 190.498L320.082 226.518L328.189 262.047L327.615 262.127C327.384 262.158 326.494 262.275 325.101 262.432C323.279 262.636 321.419 262.821 319.572 262.98C316.959 263.204 314.402 263.381 311.972 263.505C308.891 263.662 305.937 263.738 303.21 263.741Z" fill="#CCCCCC"/>
<path d="M293.92 173.651C293.916 173.651 293.911 173.651 293.907 173.651C293.555 173.651 293.208 173.582 292.883 173.447C292.559 173.313 292.264 173.116 292.016 172.868C291.767 172.62 291.571 172.325 291.436 172.001C291.302 171.677 291.233 171.33 291.233 170.979V156.075C291.231 153.405 291.766 150.762 292.807 148.302C294.846 143.503 298.661 139.674 303.458 137.614C306.492 136.315 309.801 135.787 313.089 136.078C316.378 136.369 319.542 137.469 322.3 139.281C325.057 141.093 327.322 143.559 328.89 146.459C330.459 149.359 331.283 152.601 331.288 155.897V170.823C331.288 171.183 331.216 171.538 331.076 171.869C330.801 172.514 330.287 173.029 329.641 173.304C329.31 173.446 328.954 173.519 328.594 173.52L293.918 173.651H293.92Z" fill="#2F2E41"/>
<path d="M320.301 150.964C321.698 153.511 322.308 156.414 322.053 159.307C321.798 162.199 320.69 164.951 318.869 167.216C317.049 169.48 314.597 171.155 311.823 172.029C309.049 172.903 306.079 172.937 303.286 172.126C301.436 171.595 299.711 170.704 298.209 169.503C296.708 168.302 295.46 166.815 294.537 165.129C293.144 162.583 292.537 159.682 292.792 156.793C293.048 153.903 294.155 151.153 295.973 148.89C297.792 146.628 300.241 144.953 303.011 144.078C305.782 143.203 308.75 143.166 311.541 143.973C313.392 144.501 315.12 145.392 316.624 146.592C318.127 147.792 319.377 149.278 320.301 150.965V150.964Z" fill="#9E616A"/>
<path d="M286.498 157.288C286.496 155.177 286.919 153.086 287.743 151.141C289.355 147.346 292.372 144.318 296.166 142.69C298.112 141.857 300.206 141.424 302.323 141.416L305.311 141.401C305.345 141.401 305.378 141.4 305.412 141.401C307.481 141.402 309.529 141.81 311.44 142.601C313.351 143.393 315.087 144.553 316.549 146.014C318.011 147.476 319.17 149.21 319.961 151.119C320.752 153.028 321.158 155.073 321.157 157.139V157.437L314.836 157.463L312.681 151.452L312.25 157.475L308.985 157.489L307.898 154.456L307.68 157.493L286.501 157.587L286.498 157.288Z" fill="#2F2E41"/>
<path d="M261.051 188.641C260.078 188.878 259.169 189.323 258.385 189.945C257.772 190.429 257.248 191.015 256.836 191.678C256.024 192.99 255.667 194.531 255.818 196.066C255.895 196.841 256.105 197.597 256.441 198.301C256.854 199.177 257.449 199.956 258.186 200.586C258.923 201.216 259.786 201.683 260.717 201.956C261.649 202.228 262.627 202.301 263.588 202.168C264.55 202.035 265.472 201.7 266.294 201.186C266.355 201.147 266.415 201.107 266.474 201.067C266.533 201.027 266.592 200.986 266.649 200.944C266.707 200.902 266.763 200.859 266.819 200.816C266.875 200.773 266.93 200.729 266.985 200.684L301.863 213.077C302.936 213.458 304.104 213.481 305.191 213.142C306.279 212.803 307.226 212.12 307.891 211.197L316.16 199.768L306.163 193.047L300.917 198.996L268.997 192.657C268.963 192.575 268.927 192.493 268.889 192.411C268.852 192.329 268.813 192.248 268.772 192.167C268.731 192.086 268.689 192.006 268.645 191.926C268.601 191.846 268.555 191.766 268.506 191.688C267.745 190.459 266.613 189.503 265.274 188.956C263.935 188.408 262.456 188.298 261.051 188.641Z" fill="#9E616A"/>
<path d="M301.481 195.244C302.524 193.944 303.983 192.256 305.465 190.582C306.947 188.908 308.451 187.249 309.586 186.008C310.72 184.766 311.484 183.944 311.484 183.944C312.531 182.363 314.094 181.193 315.907 180.632C317.721 180.071 319.673 180.155 321.432 180.868C323.19 181.581 324.648 182.88 325.556 184.544C326.464 186.208 326.768 188.135 326.415 189.997C326.213 191.069 325.796 192.089 325.189 192.996C325.189 192.996 324.051 194.483 322.333 196.701C320.616 198.92 318.318 201.874 316 204.81C313.682 207.747 311.341 210.668 309.536 212.825C307.731 214.981 306.461 216.374 306.283 216.255L299.987 197.573C299.808 197.453 300.438 196.544 301.481 195.244Z" fill="#CCCCCC"/>
<path d="M305.218 173.181C305.119 173.663 305.157 174.163 305.329 174.624C305.415 174.86 305.534 175.083 305.682 175.286C305.808 175.459 305.955 175.616 306.119 175.755C306.604 176.164 307.219 176.388 307.854 176.385C307.893 176.384 307.933 176.383 307.973 176.381C308.012 176.38 308.052 176.377 308.091 176.373C308.131 176.37 308.171 176.365 308.211 176.36C308.25 176.354 308.29 176.348 308.33 176.341L310.573 175.934L313.663 169.343V175.38L323.863 173.547V147.93L306.764 148.012L307.187 148.502C308.59 150.146 309.511 152.146 309.849 154.279C310.181 156.44 310.139 158.642 309.726 160.79C309.324 162.962 308.715 165.091 307.905 167.147C307.198 168.969 306.386 170.749 305.474 172.477C305.356 172.699 305.27 172.936 305.218 173.181V173.181Z" fill="#2F2E41"/>
<path d="M186.781 404H398.137C398.285 404 398.426 403.941 398.53 403.838C398.634 403.734 398.692 403.593 398.692 403.446C398.692 403.299 398.634 403.158 398.53 403.054C398.426 402.95 398.285 402.892 398.137 402.892H186.781C186.634 402.892 186.493 402.95 186.389 403.054C186.285 403.158 186.227 403.299 186.227 403.446C186.227 403.593 186.285 403.734 186.389 403.838C186.493 403.941 186.634 404 186.781 404V404Z" fill="#CACACA"/>
</g>
<defs>
<clipPath id="clip0_809_1671">
<rect width="257.692" height="268" fill="white" transform="translate(141 136)"/>
</clipPath>
</defs>
</svg>
