<svg width="540" height="540" viewBox="0 0 540 540" fill="none" xmlns="http://www.w3.org/2000/svg">
<rect width="540" height="540" fill="white"/>
<g clip-path="url(#clip0_809_1671)">
<path d="M347.648 310.445L302.693 287.267C302.015 286.916 301.504 286.311 301.272 285.585C301.039 284.858 301.105 284.068 301.454 283.39L304.234 277.996C304.585 277.318 305.19 276.807 305.917 276.575C306.644 276.342 307.433 276.408 308.112 276.757L353.067 299.935C353.745 300.285 354.256 300.89 354.488 301.617C354.72 302.344 354.655 303.133 354.306 303.812L351.525 309.205C351.353 309.542 351.115 309.84 350.826 310.084C350.538 310.328 350.203 310.513 349.843 310.627C349.558 310.718 349.261 310.765 348.961 310.765C348.504 310.765 348.054 310.655 347.648 310.445Z" fill="#1D4ED8"/>
<path d="M333.943 288.762C334.298 288.624 334.677 288.558 335.058 288.568C335.439 288.578 335.814 288.664 336.161 288.82L350.893 296.966C352.505 297.857 353.714 299.333 354.269 301.089C354.824 302.845 354.683 304.748 353.876 306.403C353.104 307.985 351.779 309.229 350.151 309.899C348.524 310.569 346.707 310.619 345.045 310.039L329.068 304.454C328.722 304.302 328.41 304.082 328.149 303.809C327.887 303.535 327.683 303.213 327.546 302.86C327.41 302.507 327.344 302.131 327.353 301.753C327.362 301.375 327.446 301.002 327.599 300.656L332.349 290.283C332.432 290.095 332.534 289.916 332.655 289.75C332.98 289.304 333.427 288.96 333.943 288.762Z" fill="#2F2E41"/>
<path d="M367.84 286.274C379.993 286.274 389.845 276.422 389.845 264.269C389.845 252.116 379.993 242.264 367.84 242.264C355.687 242.264 345.835 252.116 345.835 264.269C345.835 276.422 355.687 286.274 367.84 286.274Z" fill="#1D4ED8"/>
<path d="M365.141 401.122V350.544C365.141 349.781 365.445 349.049 365.985 348.509C366.524 347.97 367.256 347.666 368.019 347.666H374.087C374.85 347.666 375.582 347.97 376.121 348.509C376.661 349.049 376.964 349.781 376.965 350.544V401.122C376.964 401.885 376.661 402.617 376.121 403.156C375.582 403.696 374.85 403.999 374.087 404H368.019C367.256 403.999 366.524 403.696 365.985 403.156C365.445 402.617 365.141 401.885 365.141 401.122Z" fill="#1D4ED8"/>
<path d="M351.983 401.122V350.544C351.984 349.781 352.288 349.049 352.827 348.509C353.367 347.97 354.098 347.666 354.862 347.666H360.93C361.693 347.666 362.425 347.97 362.964 348.509C363.504 349.049 363.807 349.781 363.808 350.544V401.122C363.807 401.885 363.504 402.617 362.964 403.156C362.425 403.696 361.693 403.999 360.93 404H354.862C354.098 403.999 353.367 403.696 352.827 403.156C352.288 402.617 351.984 401.885 351.983 401.122Z" fill="#1D4ED8"/>
<path d="M368.304 272.425L368.327 271.602C366.797 271.56 365.448 271.464 364.435 270.723C364.148 270.501 363.911 270.22 363.742 269.899C363.574 269.578 363.476 269.224 363.456 268.861C363.438 268.64 363.471 268.417 363.554 268.211C363.636 268.005 363.765 267.82 363.93 267.671C364.603 267.103 365.685 267.287 366.474 267.649L367.154 267.961L365.85 258.426L365.035 258.537L366.145 266.648C365.073 266.333 364.079 266.469 363.399 267.043C363.138 267.271 362.933 267.557 362.8 267.877C362.667 268.198 362.611 268.544 362.634 268.89C362.658 269.377 362.788 269.853 363.016 270.284C363.243 270.716 363.562 271.092 363.95 271.387C365.252 272.339 366.944 272.386 368.304 272.425Z" fill="#2F2E41"/>
<path d="M361.005 259.237H356.576V260.059H361.005V259.237Z" fill="#2F2E41"/>
<path d="M374.983 259.237H370.555V260.059H374.983V259.237Z" fill="#2F2E41"/>
<path d="M388.897 358.913L381.286 308.91C381.172 308.156 381.362 307.387 381.814 306.772C382.267 306.158 382.944 305.748 383.699 305.632L389.698 304.719C390.452 304.605 391.221 304.795 391.836 305.247C392.45 305.699 392.861 306.377 392.976 307.131L400.587 357.134C400.701 357.888 400.511 358.657 400.059 359.272C399.607 359.886 398.929 360.296 398.175 360.412L392.175 361.325C391.802 361.382 391.42 361.365 391.053 361.275C390.686 361.185 390.341 361.023 390.036 360.799C389.732 360.575 389.474 360.293 389.279 359.969C389.083 359.646 388.954 359.287 388.897 358.913Z" fill="#1D4ED8"/>
<path d="M383.016 326.819C382.696 326.613 382.419 326.345 382.204 326.031C381.988 325.717 381.837 325.363 381.76 324.99L379.696 308.282C379.47 306.455 379.954 304.609 381.049 303.128C382.144 301.648 383.766 300.644 385.58 300.325C387.314 300.02 389.099 300.361 390.597 301.284C392.096 302.208 393.203 303.649 393.71 305.334L398.578 321.544C398.658 321.914 398.664 322.296 398.596 322.668C398.528 323.04 398.387 323.395 398.182 323.712C397.977 324.03 397.711 324.304 397.4 324.519C397.088 324.734 396.738 324.885 396.368 324.964L385.182 327.215C384.982 327.258 384.777 327.28 384.572 327.281C384.02 327.28 383.479 327.12 383.016 326.819Z" fill="#2F2E41"/>
<path d="M383.607 362.96H324.802C324.205 362.96 323.619 362.808 323.098 362.517C322.577 362.226 322.139 361.807 321.826 361.299C321.514 360.792 321.336 360.212 321.31 359.617C321.284 359.021 321.411 358.428 321.679 357.895L350.11 301.356C352.086 297.428 355.329 294.28 359.315 292.424C363.301 290.567 367.797 290.109 372.075 291.124C376.354 292.139 380.164 294.568 382.891 298.018C385.618 301.467 387.102 305.736 387.102 310.133V359.466C387.101 360.392 386.732 361.28 386.077 361.936C385.422 362.591 384.533 362.959 383.607 362.96Z" fill="#2F2E41"/>
<path d="M368.621 246.114C364.116 247.12 360.317 250.056 355.788 250.969C353.724 251.385 351.451 251.368 349.555 250.352C348.152 249.59 347.078 248.337 346.54 246.833C346.007 245.294 345.87 243.647 346.141 242.042C346.411 240.437 347.081 238.925 348.089 237.647C350.631 234.535 354.685 233.1 358.574 232.696C366.357 231.887 374.352 234.452 380.687 238.92C387.229 243.533 392.247 250.46 393.93 258.344C394.83 262.558 394.741 267.041 393.205 271.099C391.727 274.982 388.818 278.152 385.076 279.957C384.183 280.388 383.252 280.735 382.295 280.993C382.142 281.041 382.014 281.146 381.937 281.287C381.861 281.427 381.842 281.592 381.884 281.746C381.927 281.901 382.027 282.032 382.165 282.114C382.303 282.195 382.467 282.22 382.622 282.183C386.83 281.034 390.46 278.361 392.806 274.684C395.216 270.829 396.024 266.11 395.653 261.625C394.935 252.95 390.164 244.977 383.495 239.518C377.089 234.274 368.801 231.083 360.467 231.337C356.288 231.464 351.95 232.525 348.7 235.279C347.3 236.463 346.216 237.977 345.545 239.684C344.875 241.391 344.639 243.238 344.859 245.059C345.046 246.762 345.722 248.375 346.806 249.703C348.132 251.2 349.969 252.149 351.958 252.363C356.885 253.004 361.158 250.211 365.512 248.416C366.624 247.948 367.774 247.575 368.949 247.304C369.723 247.131 369.396 245.941 368.621 246.114Z" fill="#2F2E41"/>
<path d="M380.996 237.397C379.227 230.774 383.844 223.881 390.117 221.813C393.717 220.692 397.579 220.735 401.153 221.936C404.637 223.115 407.766 225.158 410.247 227.874C415.746 233.724 418.182 241.62 419.322 249.404C420.499 257.442 419.835 266.246 423.948 273.55C425.653 276.578 428.184 279.23 431.454 280.534C434.505 281.75 438.16 281.756 441.083 280.175C441.787 279.79 442.437 279.315 443.018 278.762C443.596 278.216 442.723 277.345 442.146 277.89C439.698 280.199 436.05 280.635 432.904 279.728C429.473 278.74 426.832 276.103 425.092 273.066C423.079 269.555 422.241 265.541 421.784 261.558C421.285 257.211 421.093 252.84 420.426 248.51C419.225 240.701 416.628 232.862 411.119 227.002C408.6 224.265 405.459 222.175 401.961 220.908C398.36 219.619 394.458 219.422 390.745 220.342C387.371 221.216 384.396 223.216 382.314 226.011C380.29 228.665 379.261 231.944 379.406 235.277C379.459 236.104 379.593 236.924 379.807 237.725C379.855 237.877 379.96 238.006 380.101 238.082C380.241 238.159 380.406 238.178 380.56 238.135C380.714 238.093 380.846 237.992 380.927 237.854C381.009 237.717 381.034 237.553 380.996 237.397Z" fill="#2F2E41"/>
<path d="M138.867 293.474H102.99C101.137 293.472 99.3599 292.735 98.0495 291.425C96.7392 290.115 96.0021 288.338 96 286.485V142.99C96.0021 141.137 96.7392 139.36 98.0495 138.05C99.3599 136.739 101.137 136.002 102.99 136H200.304L218.115 151.903V180.816H217.292V152.271L199.99 136.822H102.99C101.355 136.824 99.787 137.475 98.6308 138.631C97.4745 139.787 96.8242 141.355 96.8223 142.99V286.485C96.8242 288.12 97.4745 289.688 98.6308 290.844C99.787 292 101.355 292.65 102.99 292.652H138.867V293.474Z" fill="#CCCCCC"/>
<path d="M217.703 152.446H206.602C204.749 152.444 202.972 151.707 201.662 150.397C200.351 149.086 199.614 147.31 199.612 145.457V136.411C199.612 136.302 199.656 136.198 199.733 136.12C199.81 136.043 199.914 136 200.023 136C200.133 136 200.237 136.043 200.314 136.12C200.391 136.198 200.435 136.302 200.435 136.411V145.457C200.436 147.092 201.087 148.659 202.243 149.816C203.399 150.972 204.967 151.622 206.602 151.624H217.703C217.812 151.624 217.917 151.667 217.994 151.745C218.071 151.822 218.115 151.926 218.115 152.035C218.115 152.144 218.071 152.249 217.994 152.326C217.917 152.403 217.812 152.446 217.703 152.446Z" fill="#CCCCCC"/>
<path d="M203.946 173.21H110.201C109.329 173.21 108.492 173.557 107.876 174.173C107.259 174.79 106.912 175.627 106.912 176.499C106.912 177.372 107.259 178.208 107.876 178.825C108.492 179.442 109.329 179.789 110.201 179.789H203.946C204.818 179.789 205.655 179.442 206.272 178.825C206.889 178.208 207.235 177.372 207.235 176.499C207.235 175.627 206.889 174.79 206.272 174.173C205.655 173.557 204.818 173.21 203.946 173.21Z" fill="#E6E6E6"/>
<path d="M156.663 159.23H110.201C109.329 159.23 108.492 159.577 107.876 160.194C107.259 160.811 106.912 161.647 106.912 162.52C106.912 163.392 107.259 164.229 107.876 164.846C108.492 165.462 109.329 165.809 110.201 165.809H156.663C157.535 165.809 158.372 165.462 158.988 164.846C159.605 164.229 159.952 163.392 159.952 162.52C159.952 161.647 159.605 160.811 158.988 160.194C158.372 159.577 157.535 159.23 156.663 159.23Z" fill="#E6E6E6"/>
<path d="M110.201 200.758C109.329 200.758 108.492 201.104 107.876 201.721C107.259 202.338 106.912 203.175 106.912 204.047C106.912 204.919 107.259 205.756 107.876 206.373C108.492 206.99 109.329 207.336 110.201 207.336H139.583V200.758H110.201Z" fill="#E6E6E6"/>
<path d="M110.201 186.778C109.769 186.778 109.342 186.863 108.943 187.029C108.544 187.194 108.181 187.436 107.876 187.742C107.57 188.047 107.328 188.41 107.162 188.809C106.997 189.208 106.912 189.636 106.912 190.068C106.912 190.5 106.997 190.927 107.162 191.326C107.328 191.725 107.57 192.088 107.876 192.393C108.181 192.699 108.544 192.941 108.943 193.107C109.342 193.272 109.769 193.357 110.201 193.357H139.583V186.778H110.201Z" fill="#E6E6E6"/>
<path d="M139.788 270.45H113.457C111.658 270.447 109.934 269.732 108.662 268.46C107.39 267.188 106.675 265.464 106.673 263.665V229.128C106.675 227.329 107.39 225.605 108.662 224.333C109.934 223.061 111.658 222.346 113.457 222.344H139.788V270.45Z" fill="#E6E6E6"/>
<path d="M182.244 337.674H146.367C144.514 337.672 142.737 336.935 141.426 335.625C140.116 334.314 139.379 332.538 139.377 330.684V187.189C139.379 185.336 140.116 183.56 141.426 182.249C142.737 180.939 144.514 180.202 146.367 180.2H243.68L261.492 196.103V223.372H260.669V196.471L243.367 181.022H146.367C144.732 181.024 143.164 181.674 142.008 182.83C140.852 183.987 140.201 185.554 140.199 187.189V330.684C140.201 332.32 140.852 333.887 142.008 335.043C143.164 336.2 144.732 336.85 146.367 336.852H182.244V337.674Z" fill="#CCCCCC"/>
<path d="M261.081 196.646H249.98C248.127 196.644 246.35 195.907 245.04 194.597C243.729 193.286 242.992 191.51 242.99 189.656V180.611C242.99 180.502 243.034 180.397 243.111 180.32C243.188 180.243 243.292 180.2 243.401 180.2C243.51 180.2 243.615 180.243 243.692 180.32C243.769 180.397 243.813 180.502 243.813 180.611V189.656C243.814 191.292 244.465 192.859 245.621 194.015C246.777 195.172 248.345 195.822 249.98 195.824H261.081C261.19 195.824 261.295 195.867 261.372 195.944C261.449 196.021 261.492 196.126 261.492 196.235C261.492 196.344 261.449 196.449 261.372 196.526C261.295 196.603 261.19 196.646 261.081 196.646Z" fill="#CCCCCC"/>
<path d="M247.323 217.41H153.578C152.706 217.41 151.869 217.756 151.252 218.373C150.636 218.99 150.289 219.827 150.289 220.699C150.289 221.571 150.636 222.408 151.252 223.025C151.869 223.642 152.706 223.988 153.578 223.988H247.323C248.195 223.988 249.032 223.642 249.649 223.025C250.266 222.408 250.612 221.571 250.612 220.699C250.612 219.827 250.266 218.99 249.649 218.373C249.032 217.756 248.195 217.41 247.323 217.41Z" fill="#E6E6E6"/>
<path d="M200.039 203.43H153.578C152.706 203.43 151.869 203.777 151.252 204.394C150.636 205.01 150.289 205.847 150.289 206.719C150.289 207.592 150.636 208.428 151.252 209.045C151.869 209.662 152.706 210.009 153.578 210.009H200.039C200.912 210.009 201.748 209.662 202.365 209.045C202.982 208.428 203.329 207.592 203.329 206.719C203.329 205.847 202.982 205.01 202.365 204.394C201.748 203.777 200.912 203.43 200.039 203.43Z" fill="#E6E6E6"/>
<path d="M247.323 217.41H153.578C152.706 217.41 151.869 217.756 151.252 218.373C150.636 218.99 150.289 219.827 150.289 220.699C150.289 221.571 150.636 222.408 151.252 223.025C151.869 223.642 152.706 223.988 153.578 223.988H247.323C248.195 223.988 249.032 223.642 249.649 223.025C250.266 222.408 250.612 221.571 250.612 220.699C250.612 219.827 250.266 218.99 249.649 218.373C249.032 217.756 248.195 217.41 247.323 217.41Z" fill="#E6E6E6"/>
<path d="M200.039 203.43H153.578C152.706 203.43 151.869 203.777 151.252 204.394C150.636 205.01 150.289 205.847 150.289 206.719C150.289 207.592 150.636 208.428 151.252 209.045C151.869 209.662 152.706 210.009 153.578 210.009H200.039C200.912 210.009 201.748 209.662 202.365 209.045C202.982 208.428 203.329 207.592 203.329 206.719C203.329 205.847 202.982 205.01 202.365 204.394C201.748 203.777 200.912 203.43 200.039 203.43Z" fill="#E6E6E6"/>
<path d="M153.578 244.958C152.706 244.958 151.869 245.304 151.252 245.921C150.636 246.538 150.289 247.374 150.289 248.247C150.289 249.119 150.636 249.956 151.252 250.573C151.869 251.19 152.706 251.536 153.578 251.536H182.96V244.958H153.578Z" fill="#E6E6E6"/>
<path d="M153.578 230.978C152.706 230.978 151.869 231.325 151.252 231.941C150.636 232.558 150.289 233.395 150.289 234.267C150.289 235.14 150.636 235.976 151.252 236.593C151.869 237.21 152.706 237.557 153.578 237.557H182.96V230.978H153.578Z" fill="#E6E6E6"/>
<path d="M153.578 244.958C152.706 244.958 151.869 245.304 151.252 245.921C150.636 246.538 150.289 247.374 150.289 248.247C150.289 249.119 150.636 249.956 151.252 250.573C151.869 251.19 152.706 251.536 153.578 251.536H182.96V244.958H153.578Z" fill="#E6E6E6"/>
<path d="M153.578 230.978C152.706 230.978 151.869 231.325 151.252 231.941C150.636 232.558 150.289 233.395 150.289 234.267C150.289 235.14 150.636 235.976 151.252 236.593C151.869 237.21 152.706 237.557 153.578 237.557H182.96V230.978H153.578Z" fill="#E6E6E6"/>
<path d="M183.167 314.649H156.836C155.037 314.647 153.313 313.932 152.041 312.66C150.769 311.388 150.054 309.664 150.052 307.865V273.328C150.054 271.529 150.769 269.805 152.041 268.533C153.313 267.261 155.037 266.545 156.836 266.543H183.167V314.649Z" fill="#E6E6E6"/>
<path d="M185.486 224.811C184.464 225.434 183.619 226.31 183.033 227.354C182.447 228.398 182.139 229.575 182.139 230.772V231.8H182.961V230.772C182.963 229.413 183.413 228.092 184.242 227.014C185.07 225.936 186.232 225.161 187.545 224.811H185.486ZM286.442 223.783H189.128C187.275 223.785 185.499 224.522 184.188 225.832C182.878 227.143 182.141 228.919 182.139 230.772V374.267C182.141 376.12 182.879 377.897 184.189 379.207C185.499 380.517 187.275 381.255 189.128 381.257H297.264C299.117 381.255 300.893 380.517 302.203 379.207C303.513 377.897 304.251 376.12 304.253 374.267V239.686L286.442 223.783ZM303.431 374.267C303.429 375.903 302.779 377.47 301.622 378.626C300.466 379.782 298.899 380.433 297.264 380.435H189.128C187.493 380.433 185.926 379.782 184.77 378.626C183.613 377.47 182.963 375.903 182.961 374.267L182.961 230.772C182.963 229.413 183.413 228.092 184.242 227.014C185.07 225.936 186.232 225.161 187.545 224.811C188.062 224.673 188.594 224.604 189.128 224.605H286.129L303.431 240.052V374.267ZM185.486 224.811C184.464 225.434 183.619 226.31 183.033 227.354C182.447 228.398 182.139 229.575 182.139 230.772V231.8H182.961V230.772C182.963 229.413 183.413 228.092 184.242 227.014C185.07 225.936 186.232 225.161 187.545 224.811H185.486Z" fill="#3F3D56"/>
<path d="M303.842 240.229H292.741C290.888 240.227 289.111 239.49 287.801 238.18C286.49 236.869 285.753 235.093 285.751 233.239V224.194C285.751 224.085 285.794 223.98 285.871 223.903C285.949 223.826 286.053 223.783 286.162 223.783C286.271 223.783 286.376 223.826 286.453 223.903C286.53 223.98 286.573 224.085 286.573 224.194V233.239C286.575 234.875 287.226 236.442 288.382 237.598C289.538 238.755 291.106 239.405 292.741 239.407H303.842C303.951 239.407 304.056 239.45 304.133 239.527C304.21 239.604 304.253 239.709 304.253 239.818C304.253 239.927 304.21 240.032 304.133 240.109C304.056 240.186 303.951 240.229 303.842 240.229Z" fill="#3F3D56"/>
<path d="M290.085 267.571H196.34C195.468 267.571 194.631 267.225 194.014 266.608C193.397 265.991 193.051 265.154 193.051 264.282C193.051 263.41 193.397 262.573 194.014 261.956C194.631 261.339 195.468 260.993 196.34 260.993H290.085C290.957 260.993 291.794 261.339 292.411 261.956C293.027 262.573 293.374 263.41 293.374 264.282C293.374 265.154 293.027 265.991 292.411 266.608C291.794 267.225 290.957 267.571 290.085 267.571Z" fill="#CCCCCC"/>
<path d="M242.801 253.592H196.34C195.468 253.592 194.631 253.245 194.014 252.628C193.397 252.011 193.051 251.175 193.051 250.302C193.051 249.43 193.397 248.593 194.014 247.977C194.631 247.36 195.468 247.013 196.34 247.013H242.801C243.674 247.013 244.51 247.36 245.127 247.977C245.744 248.593 246.09 249.43 246.09 250.302C246.09 251.175 245.744 252.011 245.127 252.628C244.51 253.245 243.674 253.592 242.801 253.592Z" fill="#CCCCCC"/>
<path d="M290.085 295.119H196.34C195.468 295.119 194.631 294.773 194.014 294.156C193.397 293.539 193.051 292.702 193.051 291.83C193.051 290.957 193.397 290.121 194.014 289.504C194.631 288.887 195.468 288.541 196.34 288.541H290.085C290.957 288.541 291.794 288.887 292.411 289.504C293.027 290.121 293.374 290.957 293.374 291.83C293.374 292.702 293.027 293.539 292.411 294.156C291.794 294.773 290.957 295.119 290.085 295.119Z" fill="#CCCCCC"/>
<path d="M242.801 281.14H196.34C195.468 281.14 194.631 280.793 194.014 280.176C193.397 279.559 193.051 278.723 193.051 277.85C193.051 276.978 193.397 276.141 194.014 275.524C194.631 274.908 195.468 274.561 196.34 274.561H242.801C243.674 274.561 244.51 274.908 245.127 275.524C245.744 276.141 246.09 276.978 246.09 277.85C246.09 278.723 245.744 279.559 245.127 280.176C244.51 280.793 243.674 281.14 242.801 281.14Z" fill="#CCCCCC"/>
<path d="M286.762 358.232H199.596C197.797 358.23 196.073 357.515 194.801 356.243C193.529 354.971 192.814 353.247 192.812 351.448V316.911C192.814 315.112 193.529 313.388 194.801 312.116C196.073 310.844 197.797 310.128 199.596 310.126H286.762C288.56 310.128 290.285 310.844 291.557 312.116C292.828 313.388 293.544 315.112 293.546 316.911V351.448C293.544 353.247 292.828 354.971 291.557 356.243C290.285 357.515 288.56 358.23 286.762 358.232Z" fill="#1D4ED8"/>
</g>
<defs>
<clipPath id="clip0_809_1671">
<rect width="347.208" height="268" fill="white" transform="translate(96 136)"/>
</clipPath>
</defs>
</svg>
