<svg width="540" height="540" viewBox="0 0 540 540" fill="none" xmlns="http://www.w3.org/2000/svg">
<rect width="540" height="540" fill="white"/>
<g clip-path="url(#clip0_809_1733)">
<path d="M401.627 322.114C401.23 321.675 400.934 321.155 400.76 320.589C400.585 320.024 400.537 319.427 400.619 318.841C400.7 318.256 400.909 317.695 401.231 317.198C401.553 316.702 401.979 316.282 402.481 315.968L399.272 301.951L406.271 304.569L408.245 317.479C408.716 318.356 408.849 319.376 408.619 320.345C408.388 321.314 407.81 322.165 406.994 322.736C406.179 323.307 405.182 323.559 404.192 323.445C403.203 323.33 402.29 322.857 401.627 322.114Z" fill="#FFB8B8"/>
<path d="M401.143 310.989L394.99 299.094L395.822 269.143L396.218 269.976C396.678 270.946 407.473 293.799 406.703 301.45L407.937 308.441L401.143 310.989Z" fill="#3F3D56"/>
<path d="M397.131 398.895H402.064L404.411 379.866L397.13 379.867L397.131 398.895Z" fill="#FFB8B8"/>
<path d="M395.872 397.284L405.588 397.284H405.588C407.23 397.284 408.805 397.936 409.966 399.097C411.127 400.258 411.779 401.833 411.779 403.475V403.676L395.872 403.677L395.872 397.284Z" fill="#2F2E41"/>
<path d="M348.387 395.146L353.14 396.467L360.499 378.763L353.484 376.812L348.387 395.146Z" fill="#FFB8B8"/>
<path d="M347.605 393.257L356.966 395.86L356.966 395.86C358.548 396.3 359.891 397.35 360.698 398.78C361.506 400.209 361.712 401.901 361.272 403.483L361.218 403.677L345.893 399.416L347.605 393.257Z" fill="#2F2E41"/>
<path d="M392.213 391.476L382.257 320.189L360.752 391.073L343.844 385.3L368.078 290.383L368.237 290.372L393.624 288.606L411.966 385.715L392.213 391.476Z" fill="#2F2E41"/>
<path d="M389.579 256.791C389.579 256.791 380.324 251.962 367.849 253.974C367.849 253.974 361.21 269.993 367.849 276.369L369.66 292.403C369.66 292.403 386.561 302.463 392.195 290.794L391.39 277.515C391.39 277.515 395.414 271.146 392.195 266.484C390.265 263.635 389.344 260.223 389.579 256.791Z" fill="#1D4ED8"/>
<path d="M390.751 329.723L392.376 296.014L387.778 255.915L387.989 255.883C394.02 254.974 395.954 265.363 396.034 265.806L406.531 325.155L390.751 329.723Z" fill="#3F3D56"/>
<path d="M370.286 330.074L351.729 328.012L351.733 327.809C351.799 325.062 353.396 260.469 357.872 255.894C362.374 251.292 370.869 253.283 371.229 253.371L371.408 253.414L369.881 280.746L370.286 330.074Z" fill="#3F3D56"/>
<path d="M373.704 291.468C373.142 291.653 372.546 291.712 371.959 291.641C371.371 291.57 370.807 291.372 370.304 291.059C369.802 290.747 369.375 290.328 369.052 289.832C368.729 289.336 368.518 288.776 368.436 288.19L354.324 285.426L359.561 280.095L372.158 283.537C373.151 283.463 374.137 283.756 374.929 284.361C375.721 284.965 376.263 285.839 376.454 286.816C376.644 287.794 376.469 288.807 375.963 289.665C375.456 290.522 374.652 291.164 373.704 291.468Z" fill="#FFB8B8"/>
<path d="M366.173 288.232L361.575 287.244C354.787 289.285 342.939 282.098 338.15 278.906C337.249 278.305 336.957 277.115 337.282 275.369C337.761 272.927 339.107 270.74 341.072 269.213L357.937 255.84L362.194 255.128L363.459 262.294L352.713 273.835L368.531 282.445L366.173 288.232Z" fill="#3F3D56"/>
<path d="M364.354 247.909V238.617C364.354 234.687 365.916 230.917 368.696 228.137C371.475 225.357 375.245 223.796 379.176 223.796C383.107 223.796 386.877 225.357 389.656 228.137C392.436 230.917 393.998 234.687 393.998 238.617V247.909C393.997 248.436 393.787 248.942 393.414 249.316C393.041 249.689 392.534 249.899 392.007 249.9H366.345C365.818 249.899 365.312 249.689 364.938 249.316C364.565 248.942 364.355 248.436 364.354 247.909Z" fill="#2F2E41"/>
<path d="M378.581 249.808C384.582 249.808 389.447 244.943 389.447 238.941C389.447 232.94 384.582 228.075 378.581 228.075C372.579 228.075 367.714 232.94 367.714 238.941C367.714 244.943 372.579 249.808 378.581 249.808Z" fill="#FFB8B8"/>
<path d="M367.416 238.9C367.312 238.78 367.235 238.639 367.19 238.487C367.146 238.335 367.134 238.175 367.157 238.018L368.444 229.054C368.47 228.872 368.54 228.699 368.649 228.55C368.759 228.402 368.903 228.284 369.07 228.205C375.64 225.13 382.303 225.126 388.873 228.194C389.048 228.276 389.197 228.403 389.308 228.56C389.419 228.718 389.487 228.902 389.505 229.094L390.365 238.07C390.379 238.223 390.362 238.378 390.313 238.524C390.264 238.67 390.186 238.805 390.082 238.919C389.978 239.033 389.852 239.124 389.711 239.187C389.57 239.249 389.418 239.281 389.263 239.281H387.084C386.874 239.281 386.668 239.22 386.491 239.107C386.313 238.994 386.171 238.833 386.082 238.643L385.141 236.628C385.081 236.497 384.979 236.39 384.852 236.323C384.725 236.255 384.579 236.23 384.437 236.253C384.295 236.275 384.164 236.343 384.063 236.447C383.963 236.55 383.899 236.683 383.882 236.826L383.696 238.312C383.662 238.579 383.532 238.825 383.33 239.004C383.128 239.182 382.868 239.281 382.598 239.281H368.252C368.093 239.281 367.936 239.247 367.792 239.181C367.648 239.115 367.52 239.019 367.416 238.9Z" fill="#2F2E41"/>
<path d="M321.781 153.859H78V305.665H321.781V153.859Z" fill="#E6E6E6"/>
<path d="M138.996 183.104H94.3477V212.126H138.996V183.104Z" fill="white"/>
<path d="M194.476 183.104H149.827V212.126H194.476V183.104Z" fill="white"/>
<path d="M249.954 183.104H205.306V212.126H249.954V183.104Z" fill="white"/>
<path d="M305.434 183.104H260.785V212.126H305.434V183.104Z" fill="white"/>
<path d="M138.996 224.181H94.3477V253.202H138.996V224.181Z" fill="white"/>
<path d="M194.476 224.181H149.827V253.202H194.476V224.181Z" fill="white"/>
<path d="M249.954 224.181H205.306V253.202H249.954V224.181Z" fill="white"/>
<path d="M305.434 224.181H260.785V253.202H305.434V224.181Z" fill="white"/>
<path d="M138.996 265.258H94.3477V294.279H138.996V265.258Z" fill="white"/>
<path d="M194.476 265.258H149.827V294.279H194.476V265.258Z" fill="white"/>
<path d="M249.954 265.258H205.306V294.279H249.954V265.258Z" fill="white"/>
<path d="M305.434 265.258H260.785V294.279H305.434V265.258Z" fill="white"/>
<path d="M141.848 171.719C145.546 171.719 148.545 168.72 148.545 165.022C148.545 161.323 145.546 158.324 141.848 158.324C138.149 158.324 135.15 161.323 135.15 165.022C135.15 168.72 138.149 171.719 141.848 171.719Z" fill="white"/>
<path d="M252.576 171.719C256.275 171.719 259.273 168.72 259.273 165.021C259.273 161.323 256.275 158.324 252.576 158.324C248.877 158.324 245.879 161.323 245.879 165.021C245.879 168.72 248.877 171.719 252.576 171.719Z" fill="white"/>
<path d="M144.527 136H139.169V166.808H144.527V136Z" fill="#E6E6E6"/>
<path d="M255.255 136H249.897V166.808H255.255V136Z" fill="#E6E6E6"/>
<path d="M293.206 197.615C293.204 200.04 292.326 202.382 290.735 204.212C289.145 206.041 286.947 207.236 284.546 207.575C282.145 207.914 279.703 207.375 277.667 206.058C275.632 204.74 274.14 202.733 273.466 200.404C272.792 198.074 272.981 195.58 273.999 193.38C275.017 191.179 276.794 189.419 279.005 188.424C281.216 187.429 283.712 187.265 286.034 187.963C288.357 188.66 290.349 190.173 291.645 192.221C292.667 193.835 293.208 195.706 293.206 197.615Z" fill="#1D4ED8"/>
<path d="M291.646 192.221L281.707 202.158C281.083 201.191 277.603 196.697 277.603 196.697C278.049 196.246 278.524 195.826 279.027 195.44L281.913 199.287L290.482 190.718C290.917 191.181 291.306 191.685 291.646 192.221Z" fill="white"/>
<path d="M182.248 238.692C182.246 241.116 181.368 243.459 179.777 245.288C178.187 247.118 175.989 248.312 173.588 248.651C171.187 248.99 168.745 248.452 166.709 247.134C164.674 245.817 163.182 243.809 162.508 241.48C161.834 239.151 162.023 236.657 163.041 234.456C164.059 232.256 165.836 230.496 168.047 229.501C170.258 228.506 172.754 228.342 175.076 229.04C177.399 229.737 179.391 231.249 180.687 233.298C181.709 234.912 182.25 236.782 182.248 238.692Z" fill="#1D4ED8"/>
<path d="M180.687 233.298L170.748 243.235C170.124 242.268 166.644 237.774 166.644 237.774C167.09 237.323 167.565 236.903 168.068 236.516L170.954 240.364L179.523 231.795C179.958 232.258 180.347 232.761 180.687 233.298Z" fill="white"/>
<path d="M126.768 238.692C126.766 241.116 125.889 243.459 124.298 245.288C122.707 247.118 120.509 248.312 118.108 248.651C115.708 248.991 113.265 248.452 111.23 247.135C109.194 245.817 107.702 243.809 107.028 241.48C106.355 239.151 106.544 236.657 107.562 234.456C108.579 232.256 110.357 230.496 112.568 229.501C114.779 228.506 117.275 228.342 119.597 229.04C121.919 229.737 123.912 231.249 125.208 233.298C126.229 234.912 126.77 236.782 126.768 238.692Z" fill="#1D4ED8"/>
<path d="M125.208 233.298L115.269 243.235C114.644 242.268 111.164 237.774 111.164 237.774C111.61 237.323 112.086 236.903 112.589 236.516L115.474 240.364L124.044 231.795C124.478 232.258 124.868 232.761 125.208 233.298Z" fill="white"/>
<path d="M460.852 404H292.284C292.167 404 292.054 403.953 291.971 403.871C291.888 403.788 291.842 403.675 291.842 403.558C291.842 403.44 291.888 403.328 291.971 403.245C292.054 403.162 292.167 403.115 292.284 403.115H460.852C460.969 403.115 461.081 403.162 461.164 403.245C461.247 403.328 461.294 403.44 461.294 403.558C461.294 403.675 461.247 403.788 461.164 403.871C461.081 403.953 460.969 404 460.852 404Z" fill="#3F3D56"/>
</g>
<defs>
<clipPath id="clip0_809_1733">
<rect width="383.294" height="268" fill="white" transform="translate(78 136)"/>
</clipPath>
</defs>
</svg>
