<svg width="540" height="540" viewBox="0 0 540 540" fill="none" xmlns="http://www.w3.org/2000/svg">
<rect width="540" height="540" fill="white"/>
<g clip-path="url(#clip0_809_1702)">
<path d="M416.574 356.587C413.852 373.335 401.589 386.302 388.533 397.635C386.71 399.217 384.883 400.769 383.051 402.29C383.039 402.297 383.026 402.312 383.013 402.319C382.925 402.392 382.837 402.465 382.755 402.538C382.377 402.851 381.999 403.165 381.624 403.474L381.859 403.548L382.592 403.773C382.341 403.704 382.093 403.638 381.841 403.569C381.766 403.548 381.688 403.53 381.613 403.509C372.957 401.17 364.125 398.604 357.049 393.126C349.707 387.437 344.651 377.738 347.183 368.801C347.516 367.631 347.979 366.501 348.563 365.432C348.802 364.985 349.065 364.553 349.342 364.127C351.015 361.499 353.357 359.364 356.129 357.941C358.901 356.519 362.002 355.86 365.112 356.033C368.223 356.206 371.231 357.205 373.828 358.926C376.425 360.647 378.517 363.029 379.888 365.826C379.764 355.979 370.77 348.799 362.334 343.717C353.895 338.639 344.34 333.152 341.687 323.664C340.208 318.385 341.452 312.948 344.357 308.354C344.447 308.214 344.537 308.075 344.631 307.938C348.193 302.566 353.651 298.736 359.914 297.212C371.6 294.561 383.848 299.444 393.433 306.64C408.86 318.216 419.668 337.545 416.574 356.587Z" fill="#F2F2F2"/>
<path d="M391.787 338.086C394.482 341.347 396.688 344.984 398.334 348.881C399.749 352.371 400.635 356.053 400.961 359.805C401.671 367.513 400.209 375.303 397.293 382.436C395.025 387.851 392.081 392.958 388.532 397.635C386.71 399.217 384.882 400.769 383.051 402.29C383.038 402.297 383.026 402.312 383.013 402.319C382.925 402.392 382.836 402.465 382.755 402.538C382.377 402.851 381.999 403.165 381.623 403.475L381.859 403.548L382.592 403.773C382.34 403.704 382.092 403.638 381.84 403.569C381.765 403.548 381.687 403.53 381.613 403.509C381.624 397.353 380.16 391.284 377.342 385.811C374.525 380.338 370.437 375.62 365.421 372.052C360.402 368.548 354.625 366.28 348.562 365.433C348.801 364.985 349.064 364.553 349.341 364.127C351.687 364.491 353.996 365.061 356.241 365.832C364.265 368.564 371.197 373.807 376.009 380.784C380.337 387.125 382.766 394.569 383.011 402.243C383.313 401.895 383.615 401.54 383.907 401.189C389.478 394.586 394.244 387.203 397.085 379.002C399.568 372.047 400.304 364.589 399.226 357.283C397.958 349.328 393.885 342.308 388.501 336.417C382.733 330.113 375.809 324.755 368.562 320.262C361.138 315.652 353.178 311.967 344.859 309.289C344.671 309.228 344.514 309.096 344.421 308.922C344.327 308.748 344.304 308.545 344.356 308.354C344.389 308.185 344.488 308.035 344.631 307.938C344.705 307.895 344.788 307.869 344.873 307.863C344.959 307.856 345.045 307.869 345.125 307.9C346.152 308.231 347.173 308.569 348.189 308.928C356.649 311.916 364.706 315.944 372.173 320.918C379.385 325.71 386.308 331.342 391.787 338.086Z" fill="white"/>
<path d="M244.648 299.842C243.816 299.841 243.015 299.524 242.409 298.954C241.802 298.385 241.434 297.607 241.38 296.776L240.893 289.344C240.836 288.476 241.126 287.621 241.7 286.967C242.273 286.313 243.083 285.913 243.952 285.856L302.181 282.043C303.1 281.982 304.021 282.103 304.892 282.399C305.763 282.694 306.568 283.158 307.26 283.765C307.952 284.371 308.518 285.108 308.925 285.934C309.332 286.759 309.572 287.656 309.632 288.574C309.692 289.493 309.571 290.414 309.275 291.285C308.979 292.156 308.514 292.961 307.907 293.652C307.301 294.344 306.563 294.909 305.738 295.316C304.912 295.722 304.015 295.962 303.097 296.022L244.867 299.835C244.794 299.84 244.721 299.842 244.648 299.842Z" fill="#1D4ED8"/>
<path d="M256.13 300.8C255.282 300.799 254.467 300.47 253.857 299.881C253.246 299.292 252.886 298.49 252.854 297.643L252.439 286.541C252.423 286.111 252.492 285.681 252.641 285.278C252.791 284.874 253.019 284.503 253.312 284.188C253.605 283.872 253.958 283.617 254.349 283.437C254.741 283.258 255.164 283.157 255.594 283.141L303.478 281.351C304.348 281.319 305.194 281.633 305.832 282.225C306.47 282.817 306.846 283.638 306.879 284.507L307.294 295.608C307.31 296.039 307.241 296.468 307.091 296.872C306.941 297.276 306.713 297.646 306.42 297.962C306.127 298.278 305.775 298.532 305.383 298.712C304.992 298.892 304.569 298.992 304.138 299.008L256.254 300.798C256.213 300.8 256.171 300.8 256.13 300.8Z" fill="#2F2E41"/>
<path d="M312.243 403.133H304.795C303.925 403.132 303.091 402.786 302.476 402.171C301.862 401.556 301.516 400.722 301.515 399.853V337.774C301.516 336.904 301.862 336.071 302.476 335.456C303.091 334.841 303.925 334.495 304.795 334.494H312.243C313.113 334.495 313.947 334.841 314.562 335.456C315.177 336.071 315.523 336.904 315.523 337.774V399.853C315.523 400.722 315.177 401.556 314.562 402.171C313.947 402.786 313.113 403.132 312.243 403.133Z" fill="#2F2E41"/>
<path d="M279.183 370.319L272.814 366.458C272.071 366.006 271.537 365.278 271.33 364.434C271.123 363.589 271.259 362.697 271.709 361.952L303.887 308.865C304.339 308.121 305.067 307.588 305.912 307.381C306.756 307.174 307.649 307.31 308.393 307.76L314.762 311.621C315.506 312.072 316.039 312.8 316.246 313.645C316.454 314.49 316.317 315.382 315.867 316.126L283.689 369.214C283.237 369.957 282.509 370.491 281.665 370.698C280.82 370.905 279.928 370.769 279.183 370.319Z" fill="#2F2E41"/>
<path d="M300.931 269.708C315.145 269.708 326.668 258.185 326.668 243.971C326.668 229.757 315.145 218.234 300.931 218.234C286.717 218.234 275.194 229.757 275.194 243.971C275.194 258.185 286.717 269.708 300.931 269.708Z" fill="#1D4ED8"/>
<path d="M286.999 252.759C286.171 252.487 285.411 252.041 284.77 251.45C284.345 251.029 284.018 250.52 283.811 249.958C283.603 249.397 283.521 248.797 283.57 248.201C283.597 247.776 283.722 247.363 283.935 246.995C284.148 246.626 284.443 246.311 284.798 246.076C285.718 245.485 286.949 245.484 288.203 246.036L288.155 235.989L289.164 235.984L289.22 247.796L288.443 247.306C287.541 246.74 286.253 246.342 285.343 246.925C285.118 247.08 284.932 247.284 284.799 247.522C284.666 247.76 284.589 248.025 284.575 248.297C284.541 248.742 284.603 249.188 284.757 249.606C284.911 250.024 285.153 250.404 285.467 250.72C286.582 251.785 288.208 252.118 290.062 252.415L289.902 253.412C288.917 253.281 287.945 253.063 286.999 252.759Z" fill="#2F2E41"/>
<path d="M277.751 235.481L277.619 236.481L283.008 237.193L283.14 236.193L277.751 235.481Z" fill="#2F2E41"/>
<path d="M294.761 237.727L294.629 238.728L300.018 239.439L300.15 238.439L294.761 237.727Z" fill="#2F2E41"/>
<path d="M322.42 354.43H279.021C277.884 354.429 276.793 353.976 275.989 353.172C275.185 352.368 274.733 351.278 274.731 350.141L283.817 280.467C283.824 279.335 284.279 278.252 285.083 277.454C285.886 276.656 286.972 276.209 288.105 276.21H303.506C309.658 276.217 315.556 278.664 319.906 283.014C324.256 287.364 326.703 293.262 326.71 299.414V350.141C326.709 351.278 326.256 352.368 325.452 353.172C324.648 353.976 323.558 354.429 322.42 354.43Z" fill="#2F2E41"/>
<path d="M311.492 350.716C311.228 351.291 310.803 351.778 310.269 352.118C309.734 352.458 309.113 352.637 308.48 352.632L301.032 352.567C300.601 352.563 300.175 352.475 299.779 352.307C299.382 352.138 299.023 351.894 298.721 351.586C298.419 351.279 298.18 350.915 298.019 350.516C297.858 350.117 297.777 349.689 297.78 349.259L298.286 290.906C298.294 289.987 298.483 289.077 298.843 288.231C299.202 287.384 299.725 286.616 300.381 285.972C301.037 285.327 301.813 284.818 302.666 284.473C303.519 284.128 304.431 283.955 305.351 283.963C306.271 283.971 307.18 284.16 308.027 284.52C308.873 284.879 309.641 285.401 310.286 286.057C310.931 286.714 311.44 287.49 311.784 288.343C312.129 289.196 312.302 290.108 312.294 291.028L311.789 349.38C311.785 349.841 311.684 350.296 311.492 350.716Z" fill="#1D4ED8"/>
<path d="M314.783 335.138C314.519 335.714 314.094 336.201 313.56 336.541C313.026 336.881 312.405 337.059 311.771 337.054L299.049 336.944C298.18 336.935 297.349 336.582 296.74 335.962C296.13 335.341 295.791 334.505 295.798 333.635L296.213 285.72C296.217 285.289 296.306 284.863 296.474 284.466C296.642 284.07 296.887 283.71 297.194 283.408C297.501 283.106 297.865 282.868 298.265 282.707C298.664 282.545 299.091 282.464 299.522 282.468L312.244 282.578C312.674 282.582 313.1 282.67 313.497 282.839C313.893 283.007 314.253 283.252 314.555 283.559C314.857 283.866 315.095 284.23 315.256 284.629C315.418 285.029 315.499 285.456 315.495 285.887L315.08 333.802C315.076 334.264 314.975 334.719 314.783 335.138Z" fill="#2F2E41"/>
<path d="M301.412 228.707C297.972 225.86 293.372 228.552 289.482 228.17C285.759 227.805 282.763 224.529 281.947 221.004C280.994 216.891 283.059 212.713 286.169 210.079C289.575 207.193 294.149 206.297 298.507 206.736C303.502 207.239 308.104 209.475 312.248 212.208C316.245 214.761 319.934 217.768 323.24 221.17C326.203 224.319 328.734 228.092 329.601 232.39C330.389 236.296 329.927 240.649 327.673 244.013C326.477 245.738 324.856 247.126 322.967 248.042C320.999 249.055 318.893 249.793 316.99 250.932C314.111 252.655 311.349 256.167 312.328 259.748C312.539 260.531 312.938 261.249 313.492 261.841C314.157 262.552 315.313 261.574 314.646 260.862C313.476 259.61 313.488 257.912 314.071 256.38C314.765 254.654 316.025 253.214 317.644 252.298C319.637 251.107 321.848 250.354 323.893 249.266C325.851 248.27 327.54 246.815 328.815 245.026C331.221 241.545 331.875 237.061 331.236 232.937C330.545 228.474 328.168 224.451 325.222 221.099C322.015 217.45 318.103 214.384 314.113 211.639C309.833 208.694 305.118 206.224 299.938 205.397C295.447 204.68 290.605 205.266 286.738 207.78C283.128 210.126 280.401 214.095 280.206 218.476C280.143 220.469 280.613 222.443 281.567 224.194C282.521 225.945 283.924 227.41 285.632 228.439C287.384 229.442 289.406 229.87 291.415 229.663C293.562 229.484 295.702 228.785 297.869 228.927C298.85 228.968 299.79 229.327 300.548 229.95C301.299 230.572 302.158 229.324 301.412 228.707Z" fill="#2F2E41"/>
<path d="M271.148 362.849C271.158 362.793 271.168 362.736 271.181 362.679C271.27 362.257 271.443 361.858 271.688 361.504C271.933 361.149 272.246 360.847 272.609 360.614L278.868 356.577C279.6 356.107 280.488 355.945 281.338 356.129C282.188 356.312 282.931 356.825 283.403 357.556L302.711 387.491C303.183 388.222 303.344 389.111 303.161 389.961C302.977 390.811 302.464 391.554 301.733 392.026L295.473 396.063C294.742 396.533 293.854 396.695 293.004 396.511C292.154 396.328 291.411 395.815 290.939 395.084L271.63 365.149C271.189 364.469 271.017 363.649 271.148 362.849Z" fill="#2F2E41"/>
<path d="M247.707 165.559C247.226 164.418 246.421 163.442 245.391 162.753C244.361 162.064 243.152 161.692 241.913 161.683H126.269C124.607 161.684 123.013 162.345 121.837 163.52C120.662 164.696 120.001 166.29 120 167.952V314.253C120.001 315.915 120.662 317.509 121.837 318.684C123.013 319.86 124.607 320.521 126.269 320.521H241.917C243.579 320.519 245.172 319.858 246.348 318.683C247.523 317.508 248.184 315.915 248.186 314.253V167.952C248.189 167.131 248.027 166.317 247.711 165.559H247.707ZM246.79 314.253C246.788 315.546 246.274 316.785 245.36 317.699C244.446 318.614 243.206 319.128 241.913 319.129H126.269C124.976 319.129 123.736 318.615 122.821 317.701C121.907 316.787 121.393 315.547 121.392 314.253V167.953C121.394 166.66 121.908 165.421 122.822 164.506C123.737 163.592 124.976 163.078 126.269 163.076H241.917C242.891 163.08 243.842 163.374 244.648 163.92C245.454 164.466 246.079 165.241 246.444 166.144C246.515 166.324 246.576 166.507 246.627 166.694C246.738 167.104 246.794 167.528 246.794 167.953L246.79 314.253Z" fill="#3F3D56"/>
<path d="M223.574 196.224H188.74C188.001 196.224 187.292 195.931 186.769 195.408C186.247 194.885 185.953 194.177 185.953 193.437C185.953 192.698 186.247 191.989 186.769 191.467C187.292 190.944 188.001 190.651 188.74 190.651H223.574C224.313 190.651 225.022 190.944 225.544 191.467C226.067 191.989 226.36 192.698 226.36 193.437C226.36 194.177 226.067 194.885 225.544 195.408C225.022 195.931 224.313 196.224 223.574 196.224Z" fill="#3F3D56"/>
<path d="M223.573 210.854H188.74C188.373 210.855 188.011 210.783 187.672 210.643C187.334 210.503 187.026 210.298 186.767 210.039C186.508 209.781 186.302 209.473 186.162 209.135C186.021 208.797 185.949 208.434 185.949 208.068C185.949 207.701 186.021 207.339 186.162 207C186.302 206.662 186.508 206.355 186.767 206.096C187.026 205.837 187.334 205.632 187.672 205.492C188.011 205.352 188.373 205.28 188.74 205.281H223.573C223.94 205.28 224.303 205.352 224.641 205.492C224.98 205.632 225.287 205.837 225.546 206.096C225.806 206.355 226.011 206.662 226.151 207C226.292 207.339 226.364 207.701 226.364 208.068C226.364 208.434 226.292 208.797 226.151 209.135C226.011 209.473 225.806 209.781 225.546 210.039C225.287 210.298 224.98 210.503 224.641 210.643C224.303 210.783 223.94 210.855 223.573 210.854Z" fill="#3F3D56"/>
<path d="M170.867 219.185H145.411C144.579 219.184 143.782 218.853 143.195 218.265C142.607 217.678 142.276 216.881 142.275 216.049V186.009C142.276 185.178 142.607 184.381 143.195 183.793C143.782 183.205 144.579 182.875 145.411 182.874H170.867C171.698 182.875 172.495 183.205 173.083 183.793C173.671 184.381 174.001 185.178 174.002 186.009V216.049C174.001 216.881 173.671 217.678 173.083 218.265C172.495 218.853 171.698 219.184 170.867 219.185Z" fill="#1D4ED8"/>
<path d="M223.331 240.811H144.607C143.868 240.811 143.159 240.518 142.637 239.995C142.114 239.473 141.82 238.764 141.82 238.025C141.82 237.285 142.114 236.577 142.637 236.054C143.159 235.531 143.868 235.238 144.607 235.238H223.331C224.07 235.238 224.779 235.531 225.302 236.054C225.824 236.577 226.118 237.285 226.118 238.025C226.118 238.764 225.824 239.473 225.302 239.995C224.779 240.518 224.07 240.811 223.331 240.811Z" fill="#CCCCCC"/>
<path d="M223.331 255.441H144.607C143.868 255.441 143.159 255.148 142.637 254.625C142.114 254.102 141.82 253.394 141.82 252.654C141.82 251.915 142.114 251.207 142.637 250.684C143.159 250.161 143.868 249.868 144.607 249.868H223.331C224.07 249.868 224.779 250.161 225.302 250.684C225.824 251.207 226.118 251.915 226.118 252.654C226.118 253.394 225.824 254.102 225.302 254.625C224.779 255.148 224.07 255.441 223.331 255.441Z" fill="#CCCCCC"/>
<path d="M223.331 270.071H144.607C143.869 270.07 143.161 269.776 142.639 269.254C142.117 268.731 141.824 268.023 141.824 267.285C141.824 266.546 142.117 265.838 142.639 265.315C143.161 264.793 143.869 264.499 144.607 264.498H223.331C223.698 264.497 224.06 264.569 224.399 264.709C224.737 264.849 225.045 265.054 225.304 265.313C225.563 265.572 225.769 265.879 225.909 266.217C226.05 266.556 226.122 266.918 226.122 267.285C226.122 267.651 226.05 268.014 225.909 268.352C225.769 268.69 225.563 268.998 225.304 269.256C225.045 269.515 224.737 269.721 224.399 269.86C224.06 270 223.698 270.072 223.331 270.071Z" fill="#CCCCCC"/>
<path d="M223.331 284.702H144.607C143.868 284.702 143.159 284.408 142.637 283.885C142.114 283.363 141.82 282.654 141.82 281.915C141.82 281.176 142.114 280.467 142.637 279.944C143.159 279.422 143.868 279.128 144.607 279.128H223.331C224.07 279.128 224.779 279.422 225.302 279.944C225.824 280.467 226.118 281.176 226.118 281.915C226.118 282.654 225.824 283.363 225.302 283.885C224.779 284.408 224.07 284.702 223.331 284.702Z" fill="#CCCCCC"/>
<path d="M223.331 299.332H144.607C143.868 299.332 143.159 299.038 142.637 298.515C142.114 297.993 141.82 297.284 141.82 296.545C141.82 295.806 142.114 295.097 142.637 294.574C143.159 294.052 143.868 293.758 144.607 293.758H223.331C224.07 293.758 224.779 294.052 225.302 294.574C225.824 295.097 226.118 295.806 226.118 296.545C226.118 297.284 225.824 297.993 225.302 298.515C224.779 299.038 224.07 299.332 223.331 299.332Z" fill="#CCCCCC"/>
<path d="M248.572 189.789C263.425 189.789 275.466 177.748 275.466 162.894C275.466 148.041 263.425 136 248.572 136C233.719 136 221.678 148.041 221.678 162.894C221.678 177.748 233.719 189.789 248.572 189.789Z" fill="#1D4ED8"/>
<path d="M245.906 173.154C245.301 173.155 244.712 172.959 244.228 172.596L244.198 172.573L237.877 167.738C237.585 167.514 237.339 167.234 237.154 166.915C236.97 166.595 236.85 166.243 236.802 165.877C236.753 165.511 236.777 165.14 236.873 164.784C236.968 164.427 237.133 164.093 237.357 163.8C237.581 163.508 237.861 163.262 238.181 163.077C238.5 162.893 238.853 162.773 239.218 162.725C239.584 162.676 239.956 162.701 240.312 162.796C240.668 162.891 241.002 163.056 241.295 163.28L245.389 166.42L255.063 153.799C255.288 153.506 255.567 153.26 255.887 153.076C256.206 152.891 256.558 152.772 256.924 152.723C257.289 152.675 257.661 152.699 258.017 152.795C258.373 152.89 258.707 153.054 259 153.279L259 153.279L258.94 153.363L259.002 153.279C259.592 153.733 259.979 154.402 260.076 155.14C260.173 155.879 259.974 156.625 259.521 157.216L248.142 172.055C247.879 172.397 247.541 172.673 247.153 172.863C246.766 173.053 246.34 173.152 245.908 173.15L245.906 173.154Z" fill="white"/>
<path d="M418.727 404H235.751C235.619 404 235.493 403.948 235.4 403.854C235.306 403.761 235.254 403.635 235.254 403.503C235.254 403.371 235.306 403.245 235.4 403.151C235.493 403.058 235.619 403.006 235.751 403.006H418.727C418.859 403.006 418.985 403.058 419.079 403.151C419.172 403.245 419.224 403.371 419.224 403.503C419.224 403.635 419.172 403.761 419.079 403.854C418.985 403.948 418.859 404 418.727 404Z" fill="#3F3D56"/>
</g>
<defs>
<clipPath id="clip0_809_1702">
<rect width="299.224" height="268" fill="white" transform="translate(120 136)"/>
</clipPath>
</defs>
</svg>
