<svg width="352" height="219" viewBox="0 0 352 219" fill="none" xmlns="http://www.w3.org/2000/svg">
<g clip-path="url(#clip0_775_109)">
<path d="M85.2525 196.831L85.6439 188.044C89.7238 185.866 94.2743 184.716 98.9004 184.693C92.5335 189.891 93.3292 199.91 89.0126 206.9C87.6495 209.07 85.815 210.905 83.6449 212.271C81.4748 213.637 79.0247 214.497 76.4763 214.789L71.1483 218.046C70.4172 213.976 70.5784 209.796 71.6207 205.795C72.6631 201.793 74.5619 198.065 77.1862 194.867C78.6763 193.087 80.3849 191.502 82.2716 190.148C83.5477 193.508 85.2525 196.831 85.2525 196.831Z" fill="#F2F2F2"/>
<path d="M312.598 14.5044H64.5644C64.4603 14.5021 64.3612 14.4592 64.2884 14.3849C64.2156 14.3105 64.1748 14.2107 64.1748 14.1067C64.1748 14.0027 64.2156 13.9028 64.2884 13.8285C64.3612 13.7542 64.4603 13.7113 64.5644 13.709H312.598C312.702 13.7113 312.801 13.7542 312.874 13.8285C312.947 13.9028 312.988 14.0027 312.988 14.1067C312.988 14.2107 312.947 14.3105 312.874 14.3849C312.801 14.4592 312.702 14.5021 312.598 14.5044Z" fill="#CACACA"/>
<path d="M73.3334 8.93677C75.7002 8.93677 77.619 6.97818 77.619 4.56214C77.619 2.14609 75.7002 0.1875 73.3334 0.1875C70.9666 0.1875 69.0479 2.14609 69.0479 4.56214C69.0479 6.97818 70.9666 8.93677 73.3334 8.93677Z" fill="#3F3D56"/>
<path d="M88.1381 8.93677C90.5049 8.93677 92.4236 6.97818 92.4236 4.56214C92.4236 2.14609 90.5049 0.1875 88.1381 0.1875C85.7712 0.1875 83.8525 2.14609 83.8525 4.56214C83.8525 6.97818 85.7712 8.93677 88.1381 8.93677Z" fill="#3F3D56"/>
<path d="M102.943 8.93677C105.31 8.93677 107.228 6.97818 107.228 4.56214C107.228 2.14609 105.31 0.1875 102.943 0.1875C100.576 0.1875 98.6572 2.14609 98.6572 4.56214C98.6572 6.97818 100.576 8.93677 102.943 8.93677Z" fill="#3F3D56"/>
<path d="M303.727 1.27173H293.21C293.002 1.27586 292.803 1.36145 292.657 1.51011C292.511 1.65878 292.43 1.85866 292.43 2.06685C292.43 2.27503 292.511 2.47492 292.657 2.62358C292.803 2.77224 293.002 2.85783 293.21 2.86196H303.727C303.935 2.85783 304.134 2.77224 304.28 2.62358C304.426 2.47492 304.507 2.27503 304.507 2.06685C304.507 1.85866 304.426 1.65878 304.28 1.51011C304.134 1.36145 303.935 1.27586 303.727 1.27173Z" fill="#3F3D56"/>
<path d="M303.727 4.25635H293.21C293.002 4.26048 292.803 4.34607 292.657 4.49473C292.511 4.64339 292.43 4.84328 292.43 5.05146C292.43 5.25965 292.511 5.45953 292.657 5.6082C292.803 5.75686 293.002 5.84245 293.21 5.84658H303.727C303.935 5.84245 304.134 5.75686 304.28 5.6082C304.426 5.45953 304.507 5.25965 304.507 5.05146C304.507 4.84328 304.426 4.64339 304.28 4.49473C304.134 4.34607 303.935 4.26048 303.727 4.25635Z" fill="#3F3D56"/>
<path d="M303.727 7.23706H293.21C293.002 7.24119 292.803 7.32677 292.657 7.47544C292.511 7.6241 292.43 7.82399 292.43 8.03218C292.43 8.24036 292.511 8.44025 292.657 8.58891C292.803 8.73757 293.002 8.82316 293.21 8.82729H303.727C303.935 8.82316 304.134 8.73757 304.28 8.58891C304.426 8.44025 304.507 8.24036 304.507 8.03218C304.507 7.82399 304.426 7.6241 304.28 7.47544C304.134 7.32677 303.935 7.24119 303.727 7.23706Z" fill="#3F3D56"/>
<path d="M257.601 45.6782H87.3569C86.518 45.6783 85.7135 46.0108 85.12 46.6027C84.5265 47.1946 84.1925 47.9976 84.1914 48.8352V129.079C84.1923 129.917 84.5261 130.721 85.1196 131.313C85.713 131.906 86.5176 132.239 87.3569 132.24H257.601C258.439 132.238 259.243 131.905 259.836 131.312C260.428 130.72 260.762 129.917 260.762 129.079V48.8352C260.761 47.9982 260.428 47.1957 259.835 46.6038C259.243 46.012 258.439 45.6791 257.601 45.6782Z" fill="#3F3D56"/>
<path d="M212.632 84.3373C211.794 84.3381 210.99 84.671 210.398 85.2629C209.805 85.8547 209.472 86.6572 209.471 87.4942V110.161C209.471 110.998 209.805 111.801 210.397 112.394C210.99 112.986 211.794 113.32 212.632 113.322H260.762V84.3373H212.632Z" fill="#1D4ED8"/>
<path opacity="0.5" d="M341.691 113.32H212.634C211.795 113.319 210.991 112.986 210.398 112.394C209.804 111.802 209.471 110.998 209.47 110.161V87.495C209.471 86.6574 209.804 85.8543 210.398 85.2621C210.991 84.6698 211.795 84.3366 212.634 84.3357H341.691C342.529 84.3366 343.334 84.6698 343.927 85.2621C344.52 85.8543 344.854 86.6574 344.855 87.495V110.161C344.854 110.998 344.52 111.802 343.927 112.394C343.334 112.986 342.529 113.319 341.691 113.32Z" fill="#1D4ED8"/>
<path d="M230.087 105.404C232.922 105.404 235.221 103.109 235.221 100.277C235.221 97.4455 232.922 95.1501 230.087 95.1501C227.251 95.1501 224.952 97.4455 224.952 100.277C224.952 103.109 227.251 105.404 230.087 105.404Z" fill="white"/>
<path d="M337.692 98.7874H244.918C244.512 98.7874 244.123 98.6265 243.836 98.3402C243.55 98.0539 243.389 97.6656 243.389 97.2607C243.389 96.8558 243.55 96.4675 243.836 96.1812C244.123 95.8948 244.512 95.734 244.918 95.734H337.692C338.098 95.734 338.486 95.8948 338.773 96.1812C339.06 96.4675 339.221 96.8558 339.221 97.2607C339.221 97.6656 339.06 98.0539 338.773 98.3402C338.486 98.6265 338.098 98.7874 337.692 98.7874Z" fill="white"/>
<path d="M302.455 104.82H244.918C244.512 104.82 244.123 104.659 243.836 104.373C243.55 104.086 243.389 103.698 243.389 103.293C243.389 102.888 243.55 102.5 243.836 102.214C244.123 101.927 244.512 101.766 244.918 101.766H302.455C302.861 101.766 303.25 101.927 303.537 102.214C303.823 102.5 303.984 102.888 303.984 103.293C303.984 103.698 303.823 104.086 303.537 104.373C303.25 104.659 302.861 104.82 302.455 104.82Z" fill="white"/>
<path d="M59.3904 213.865L63.8339 213.865L65.9478 196.751H59.3896L59.3904 213.865Z" fill="#FFB6B6"/>
<path d="M58.2568 212.417L59.5075 212.416L64.3905 210.434L67.0076 212.416C68.4866 212.416 69.9053 213.003 70.9511 214.047C71.997 215.091 72.5845 216.508 72.5846 217.985V218.166L58.2571 218.166L58.2568 212.417Z" fill="#2F2E41"/>
<path d="M19.2402 208.096L23.2173 210.076L32.7547 195.7L26.8853 192.779L19.2402 208.096Z" fill="#FFB6B6"/>
<path d="M18.8731 206.295L19.9925 206.852L25.2485 207.253L26.705 210.193C28.0287 210.852 29.0363 212.009 29.5058 213.409C29.9752 214.81 29.8684 216.339 29.2087 217.661L29.1279 217.823L16.3047 211.441L18.8731 206.295Z" fill="#2F2E41"/>
<path d="M61.3588 136.139L33.1061 136.875L33.5974 150.613C33.5974 150.613 33.1061 154.293 34.0888 155.274C35.0715 156.255 35.5628 156.255 35.0715 157.973C34.5801 159.69 33.3099 176.097 33.3099 176.097C33.3099 176.097 21.7141 196.57 22.2055 197.061C22.6968 197.552 23.1882 197.061 22.6968 198.288C22.2055 199.514 21.7141 199.024 22.2055 199.514C22.6407 199.983 23.0508 200.474 23.4339 200.986H31.442C31.442 200.986 31.8898 198.533 31.8898 198.288C31.8898 198.042 32.3812 196.57 32.3812 196.325C32.3812 196.08 46.3726 181.278 46.3726 181.278L49.3207 156.746L56.4453 180.787C56.4453 180.787 56.4453 201.884 56.9367 202.375C57.428 202.865 57.428 202.62 57.1823 203.601C56.9367 204.583 55.9539 204.337 56.691 205.073C57.428 205.809 57.6737 204.583 57.428 205.809L57.1823 207.036L66.621 207.141C66.621 207.141 67.6037 205.073 67.1124 204.337C66.621 203.601 66.6505 203.802 67.2499 202.598C67.8494 201.394 68.0951 201.148 67.8494 200.903C67.6037 200.658 67.6037 199.353 67.6037 199.353C67.6037 199.353 64.0613 151.104 64.0613 150.368C64.0427 149.989 64.1126 149.611 64.2653 149.264V148.265L63.3242 144.726L61.3588 136.139Z" fill="#2F2E41"/>
<path d="M341.139 93.5442C338.995 93.5442 336.899 92.9093 335.116 91.7198C333.333 90.5303 331.944 88.8396 331.123 86.8616C330.303 84.8835 330.088 82.7069 330.506 80.607C330.924 78.5071 331.957 76.5782 333.473 75.0642C334.989 73.5503 336.921 72.5193 339.024 72.1016C341.127 71.6839 343.307 71.8982 345.288 72.7176C347.269 73.5369 348.962 74.9244 350.153 76.7047C351.344 78.4849 351.98 80.5778 351.98 82.7189C351.98 85.59 350.838 88.3434 348.805 90.3736C346.772 92.4037 344.014 93.5442 341.139 93.5442Z" fill="#1D4ED8"/>
<path d="M345.417 81.6513H342.209V78.4477C342.209 78.1645 342.096 77.8929 341.895 77.6927C341.695 77.4924 341.423 77.3799 341.139 77.3799C340.856 77.3799 340.584 77.4924 340.383 77.6927C340.182 77.8929 340.07 78.1645 340.07 78.4477V81.6513H336.861C336.721 81.6511 336.582 81.6785 336.452 81.732C336.322 81.7856 336.204 81.8642 336.104 81.9634C336.004 82.0626 335.926 82.1804 335.872 82.3101C335.818 82.4397 335.79 82.5788 335.79 82.7192C335.79 82.8596 335.818 82.9986 335.872 83.1283C335.926 83.258 336.004 83.3758 336.104 83.475C336.204 83.5742 336.322 83.6528 336.452 83.7063C336.582 83.7599 336.721 83.7873 336.861 83.787H340.07V86.9906C340.07 87.2738 340.182 87.5454 340.383 87.7457C340.584 87.946 340.856 88.0585 341.139 88.0585C341.423 88.0585 341.695 87.946 341.895 87.7457C342.096 87.5454 342.209 87.2738 342.209 86.9906V83.787H345.417C345.7 83.787 345.973 83.6745 346.173 83.4743C346.374 83.274 346.486 83.0024 346.486 82.7192C346.486 82.436 346.374 82.1643 346.173 81.9641C345.973 81.7638 345.7 81.6513 345.417 81.6513Z" fill="white"/>
<path d="M175.686 113.467H134.495C133.655 113.468 132.851 113.801 132.257 114.394C131.664 114.986 131.33 115.79 131.329 116.628V132.24H178.847V116.628C178.846 115.79 178.513 114.987 177.921 114.395C177.328 113.802 176.524 113.469 175.686 113.467Z" fill="#1D4ED8"/>
<path opacity="0.5" d="M175.684 157.335H134.493C133.654 157.334 132.85 157.001 132.257 156.409C131.664 155.817 131.33 155.014 131.329 154.176V116.626C131.33 115.789 131.664 114.985 132.257 114.393C132.85 113.801 133.654 113.468 134.493 113.467H175.684C176.523 113.468 177.327 113.801 177.92 114.393C178.514 114.985 178.847 115.789 178.848 116.626V154.176C178.847 155.014 178.514 155.817 177.921 156.409C177.327 157.001 176.523 157.334 175.684 157.335Z" fill="#1D4ED8"/>
<path d="M146.63 131.265C149.465 131.265 151.764 128.97 151.764 126.138C151.764 123.307 149.465 121.011 146.63 121.011C143.794 121.011 141.495 123.307 141.495 126.138C141.495 128.97 143.794 131.265 146.63 131.265Z" fill="white"/>
<path d="M167.153 139.058H143.024C142.619 139.058 142.23 138.897 141.943 138.611C141.656 138.324 141.495 137.936 141.495 137.531C141.495 137.126 141.656 136.738 141.943 136.452C142.23 136.165 142.619 136.004 143.024 136.004H167.153C167.559 136.004 167.948 136.165 168.235 136.452C168.521 136.738 168.682 137.126 168.682 137.531C168.682 137.936 168.521 138.324 168.235 138.611C167.948 138.897 167.559 139.058 167.153 139.058Z" fill="white"/>
<path d="M154.668 145.09H143.024C142.619 145.09 142.23 144.93 141.943 144.643C141.656 144.357 141.495 143.969 141.495 143.564C141.495 143.159 141.656 142.77 141.943 142.484C142.23 142.198 142.619 142.037 143.024 142.037H154.668C155.073 142.037 155.462 142.198 155.749 142.484C156.036 142.77 156.197 143.159 156.197 143.564C156.197 143.969 156.036 144.357 155.749 144.643C155.462 144.93 155.073 145.09 154.668 145.09Z" fill="white"/>
<path d="M133.634 168.356C131.49 168.356 129.394 167.721 127.611 166.531C125.828 165.342 124.439 163.651 123.618 161.673C122.798 159.695 122.583 157.519 123.001 155.419C123.42 153.319 124.452 151.39 125.968 149.876C127.484 148.362 129.416 147.331 131.519 146.913C133.622 146.496 135.802 146.71 137.783 147.529C139.764 148.349 141.457 149.736 142.648 151.516C143.84 153.297 144.475 155.39 144.475 157.531C144.475 160.402 143.333 163.155 141.3 165.185C139.267 167.215 136.509 168.356 133.634 168.356Z" fill="#1D4ED8"/>
<path d="M137.912 156.463H134.704V153.259C134.704 152.976 134.591 152.704 134.391 152.504C134.19 152.304 133.918 152.191 133.634 152.191C133.351 152.191 133.079 152.304 132.878 152.504C132.678 152.704 132.565 152.976 132.565 153.259V156.463H129.357C129.216 156.462 129.077 156.49 128.947 156.543C128.817 156.597 128.699 156.676 128.599 156.775C128.5 156.874 128.421 156.992 128.367 157.121C128.313 157.251 128.285 157.39 128.285 157.531C128.285 157.671 128.313 157.81 128.367 157.94C128.421 158.069 128.5 158.187 128.599 158.286C128.699 158.386 128.817 158.464 128.947 158.518C129.077 158.571 129.216 158.599 129.357 158.598H132.565V161.802C132.565 162.085 132.678 162.357 132.878 162.557C133.079 162.757 133.351 162.87 133.634 162.87C133.918 162.87 134.19 162.757 134.391 162.557C134.591 162.357 134.704 162.085 134.704 161.802V158.598H137.912C138.196 158.598 138.468 158.486 138.668 158.286C138.869 158.085 138.981 157.814 138.981 157.531C138.981 157.247 138.869 156.976 138.668 156.775C138.468 156.575 138.196 156.463 137.912 156.463Z" fill="white"/>
<path d="M128.616 89.5956H87.4248C86.586 89.5946 85.7817 89.2614 85.1885 88.6691C84.5954 88.0768 84.2617 87.2738 84.2607 86.4361V48.8864C84.2617 48.0487 84.5954 47.2457 85.1886 46.6534C85.7817 46.0611 86.586 45.728 87.4248 45.7271H128.616C129.455 45.728 130.259 46.0611 130.852 46.6534C131.445 47.2457 131.779 48.0487 131.78 48.8864V86.4361C131.779 87.2738 131.445 88.0768 130.852 88.6691C130.259 89.2614 129.455 89.5946 128.616 89.5956Z" fill="#1D4ED8"/>
<path d="M99.5612 66.659C102.397 66.659 104.696 64.3637 104.696 61.5322C104.696 58.7007 102.397 56.4053 99.5612 56.4053C96.7255 56.4053 94.4268 58.7007 94.4268 61.5322C94.4268 64.3637 96.7255 66.659 99.5612 66.659Z" fill="#1D4ED8"/>
<path d="M120.085 72.8849H95.9557C95.5502 72.8849 95.1613 72.7241 94.8746 72.4378C94.5878 72.1514 94.4268 71.7631 94.4268 71.3582C94.4268 70.9533 94.5878 70.565 94.8746 70.2787C95.1613 69.9924 95.5502 69.8315 95.9557 69.8315H120.085C120.491 69.8315 120.879 69.9924 121.166 70.2787C121.453 70.565 121.614 70.9533 121.614 71.3582C121.614 71.7631 121.453 72.1514 121.166 72.4378C120.879 72.7241 120.491 72.8849 120.085 72.8849Z" fill="#1D4ED8"/>
<path d="M107.599 78.9175H95.9558C95.5502 78.9175 95.1613 78.7567 94.8746 78.4704C94.5879 78.184 94.4268 77.7957 94.4268 77.3908C94.4268 76.9859 94.5879 76.5975 94.8746 76.3112C95.1613 76.0249 95.5502 75.864 95.9558 75.864H107.599C108.005 75.864 108.394 76.0249 108.681 76.3112C108.967 76.5975 109.128 76.9859 109.128 77.3908C109.128 77.7957 108.967 78.184 108.681 78.4704C108.394 78.7567 108.005 78.9175 107.599 78.9175Z" fill="#1D4ED8"/>
<path opacity="0.5" d="M128.616 89.5956H87.4248C86.586 89.5946 85.7817 89.2614 85.1885 88.6691C84.5954 88.0768 84.2617 87.2738 84.2607 86.4361V48.8864C84.2617 48.0487 84.5954 47.2457 85.1886 46.6534C85.7817 46.0611 86.586 45.728 87.4248 45.7271H128.616C129.455 45.728 130.259 46.0611 130.852 46.6534C131.445 47.2457 131.779 48.0487 131.78 48.8864V86.4361C131.779 87.2738 131.445 88.0768 130.852 88.6691C130.259 89.2614 129.455 89.5946 128.616 89.5956Z" fill="#1D4ED8"/>
<path d="M99.5612 66.659C102.397 66.659 104.696 64.3637 104.696 61.5322C104.696 58.7007 102.397 56.4053 99.5612 56.4053C96.7255 56.4053 94.4268 58.7007 94.4268 61.5322C94.4268 64.3637 96.7255 66.659 99.5612 66.659Z" fill="white"/>
<path d="M120.085 72.8849H95.9557C95.5502 72.8849 95.1613 72.7241 94.8746 72.4378C94.5878 72.1514 94.4268 71.7631 94.4268 71.3582C94.4268 70.9533 94.5878 70.565 94.8746 70.2787C95.1613 69.9924 95.5502 69.8315 95.9557 69.8315H120.085C120.491 69.8315 120.879 69.9924 121.166 70.2787C121.453 70.565 121.614 70.9533 121.614 71.3582C121.614 71.7631 121.453 72.1514 121.166 72.4378C120.879 72.7241 120.491 72.8849 120.085 72.8849Z" fill="white"/>
<path d="M107.599 78.9175H95.9558C95.5502 78.9175 95.1613 78.7567 94.8746 78.4704C94.5879 78.184 94.4268 77.7957 94.4268 77.3908C94.4268 76.9859 94.5879 76.5975 94.8746 76.3112C95.1613 76.0249 95.5502 75.864 95.9558 75.864H107.599C108.005 75.864 108.394 76.0249 108.681 76.3112C108.967 76.5975 109.128 76.9859 109.128 77.3908C109.128 77.7957 108.967 78.184 108.681 78.4704C108.394 78.7567 108.005 78.9175 107.599 78.9175Z" fill="white"/>
<path d="M88.2745 53.8291C92.8239 53.8291 96.5119 50.1465 96.5119 45.6038C96.5119 41.061 92.8239 37.3784 88.2745 37.3784C83.7251 37.3784 80.0371 41.061 80.0371 45.6038C80.0371 50.1465 83.7251 53.8291 88.2745 53.8291Z" fill="#FF6584"/>
<path d="M110.88 217.879C110.88 217.941 110.868 218.001 110.844 218.058C110.821 218.115 110.787 218.166 110.743 218.209C110.7 218.253 110.648 218.287 110.592 218.31C110.535 218.334 110.474 218.346 110.413 218.345H0.466788C0.342988 218.345 0.224257 218.296 0.136718 218.209C0.0491785 218.122 0 218.003 0 217.879C0 217.756 0.0491785 217.637 0.136718 217.55C0.224257 217.462 0.342988 217.413 0.466788 217.413H110.413C110.474 217.413 110.535 217.425 110.592 217.448C110.648 217.472 110.7 217.506 110.743 217.549C110.787 217.593 110.821 217.644 110.844 217.701C110.868 217.757 110.88 217.818 110.88 217.879Z" fill="#CCCCCC"/>
<path d="M86.5142 67.391C86.8529 68.3365 86.8058 69.3769 86.3833 70.2881C85.9607 71.1992 85.1965 71.908 84.2553 72.2617C84.0471 72.3393 83.8324 72.3984 83.6138 72.4382L81.4383 85.7395L76.335 81.0344L79.1833 69.1246C79.0778 68.121 79.3722 67.1163 80.0027 66.3277C80.6332 65.5391 81.5492 65.03 82.5526 64.9103C83.3969 64.8137 84.2489 65.0066 84.9688 65.4574C85.6887 65.9082 86.2337 66.5901 86.5142 67.391Z" fill="#FFB6B6"/>
<path d="M48.8516 97.5303C48.8516 97.5303 52.8124 92.3046 67.1853 92.4478L75.3433 89.4881L77.2078 72.4224L83.7333 73.9738L82.8011 95.0732L68.8178 103.141L50.4841 106.864L48.8516 97.5303Z" fill="#3F3D56"/>
<path d="M46.7474 86.6439C51.4587 86.6439 55.278 82.8302 55.278 78.1258C55.278 73.4214 51.4587 69.6077 46.7474 69.6077C42.0361 69.6077 38.2168 73.4214 38.2168 78.1258C38.2168 82.8302 42.0361 86.6439 46.7474 86.6439Z" fill="#FFB6B6"/>
<path d="M32.3092 142.712C32.2941 142.712 32.279 142.71 32.2644 142.706C32.1069 142.662 31.9825 142.628 32.5509 137.72L33.1643 133.841L32.5655 130.416L31.5582 129.41L33.1771 127.794L34.5357 123.94L32.1849 120.462L29.488 106.238C29.0243 103.783 29.3846 101.245 30.513 99.0153C31.6414 96.7861 33.4748 94.9909 35.729 93.9081L38.8505 92.9974L39.9863 90.9176C40.3052 90.3336 40.7748 89.8454 41.3463 89.5037C41.9179 89.1619 42.5706 88.9791 43.2368 88.9741L48.953 88.9314C49.5297 88.9271 50.0996 89.0562 50.618 89.3087C51.1363 89.5611 51.5891 89.9301 51.9407 90.3865L53.935 92.9752L62.2048 95.7803L60.8336 125.282C61.0514 125.464 61.229 125.69 61.3552 125.944C61.4813 126.198 61.5533 126.475 61.5666 126.759C61.5798 127.042 61.534 127.325 61.4321 127.59C61.3302 127.854 61.1744 128.095 60.9745 128.296C60.8885 128.383 60.8202 128.454 60.7781 128.5C60.6386 128.698 60.9002 130.174 61.2232 131.428L61.6375 133.348C61.5045 133.443 61.3928 133.564 61.3092 133.704C61.2256 133.845 61.172 134 61.1518 134.162C61.1316 134.324 61.1453 134.489 61.1919 134.645C61.2385 134.801 61.3171 134.946 61.4226 135.071L61.9508 135.694C62.0552 136.475 61.8451 137.265 61.3666 137.892C60.8881 138.519 60.1802 138.931 59.3982 139.037C51.8404 140.064 32.3487 142.712 32.3092 142.712Z" fill="#3F3D56"/>
<path d="M44.5651 86.2268C44.5286 86.1467 44.4923 86.0663 44.4561 85.9856C44.47 85.986 44.4839 85.9881 44.4978 85.9884L44.5651 86.2268Z" fill="#2F2E41"/>
<path d="M37.9796 69.995C38.3847 69.6134 38.9111 69.3861 39.467 69.3528C40.0186 69.3706 40.578 69.8681 40.4637 70.4073C41.477 68.6159 43.0897 67.2381 45.0189 66.5158C46.9481 65.7934 49.0704 65.7727 51.0134 66.4572C52.3844 66.9402 53.7289 67.9065 54.0439 69.3237C54.0745 69.6958 54.1857 70.0568 54.3696 70.3819C54.529 70.5556 54.7358 70.6791 54.9646 70.7369C55.1933 70.7948 55.434 70.7846 55.6571 70.7076L55.6706 70.7036C55.7469 70.6776 55.8293 70.675 55.9072 70.6963C55.985 70.7175 56.0546 70.7616 56.1071 70.8228C56.1595 70.8839 56.1924 70.9594 56.2014 71.0395C56.2104 71.1195 56.1952 71.2004 56.1576 71.2717L55.7697 71.9942C56.2587 72.103 56.7668 72.0922 57.2508 71.9627C57.3311 71.9417 57.4161 71.946 57.4939 71.975C57.5718 72.0041 57.6387 72.0565 57.6856 72.125C57.7324 72.1936 57.7569 72.2749 57.7556 72.3579C57.7543 72.4409 57.7273 72.5214 57.6784 72.5885C57.0337 73.4692 56.192 74.1875 55.2204 74.6862C54.2487 75.1849 53.1739 75.4503 52.0814 75.4612C50.5314 75.4518 48.9655 74.9183 47.457 75.2743C46.8735 75.412 46.3282 75.6784 45.8612 76.0539C45.3941 76.4295 45.0173 76.9047 44.7582 77.4447C44.4991 77.9847 44.3643 78.5757 44.3638 79.1745C44.3633 79.7732 44.4971 80.3645 44.7553 80.9049C44.2919 80.3988 43.3961 80.5186 42.922 81.0149C42.7037 81.2805 42.5424 81.5881 42.448 81.9185C42.3535 82.249 42.328 82.5953 42.3731 82.9359C42.4995 83.9794 42.8097 84.9923 43.2895 85.9278C41.4566 85.8715 39.6852 85.2549 38.2145 84.1611C36.7438 83.0674 35.6447 81.5493 35.0657 79.8119C34.4867 78.0745 34.4556 76.2015 34.9767 74.4459C35.4978 72.6903 36.546 71.1367 37.9796 69.995Z" fill="#2F2E41"/>
<path d="M35.6326 154.929C34.817 154.342 34.2652 153.458 34.0963 152.468C33.9274 151.478 34.1548 150.462 34.7295 149.638C34.857 149.456 35.0003 149.286 35.1578 149.129L29.4014 136.939L36.2764 137.928L40.6888 149.352C41.3453 150.12 41.6729 151.114 41.601 152.12C41.5291 153.127 41.0634 154.065 40.3045 154.731C39.6638 155.289 38.8523 155.612 38.0033 155.648C37.1543 155.684 36.3183 155.43 35.6326 154.929Z" fill="#FFB6B6"/>
<path d="M33.8895 148.273L24.7294 127.716L24.6377 111.48L27.5251 102.71C27.9169 101.52 28.5435 100.421 29.368 99.477C30.1925 98.5331 31.1981 97.7638 32.3254 97.2146C33.4527 96.6654 34.6788 96.3475 35.9313 96.2795C37.1838 96.2116 38.4372 96.3951 39.6174 96.8191L39.681 96.8419L39.7077 96.904C39.8144 97.1527 42.2361 103.134 35.0527 115.439L33.607 123.859L38.6798 143.159L33.8895 148.273Z" fill="#3F3D56"/>
</g>
<defs>
<clipPath id="clip0_775_109">
<rect width="351.98" height="218.158" fill="white" transform="translate(0 0.1875)"/>
</clipPath>
</defs>
</svg>
