<svg width="37" height="36" viewBox="0 0 37 36" fill="none" xmlns="http://www.w3.org/2000/svg">
<g clip-path="url(#clip0_1331_19539)">
<path d="M34.9983 18.0071C34.9983 21.1096 34.1119 24.153 32.3981 26.7532C32.0436 27.3146 31.6595 27.8169 31.2162 28.3192C30.2116 29.5011 29.0593 30.5057 27.7887 31.3626C27.4342 31.599 27.0796 31.8058 26.725 32.0127C24.8044 33.0764 22.677 33.7264 20.52 33.9333C20.0177 33.9923 19.5154 33.9923 19.0131 33.9923C17.6244 33.9923 16.2356 33.8151 14.8764 33.4605C14.1082 33.2537 13.3695 32.9877 12.6308 32.6923C12.2467 32.5445 11.8921 32.3672 11.5376 32.1604C10.6807 31.7172 9.88291 31.1853 9.11467 30.5944C8.7601 30.3285 8.43508 30.033 8.11005 29.7375C1.63914 23.7394 1.25502 13.6045 7.25318 7.13363C13.2513 0.662711 23.3861 0.249046 29.8571 6.27675C33.1368 9.2906 34.9983 13.5454 34.9983 18.0071Z" fill="#E6E6E6"/>
<path d="M15.1133 19.455C15.1133 19.455 16.5611 23.503 15.4383 25.7782C14.3155 28.0533 17.2112 30.624 17.2112 30.624C17.2112 30.624 24.8344 26.7533 23.8594 24.8031C22.8843 22.853 21.2592 20.2823 21.5842 18.6572L15.1133 19.455Z" fill="#FFB8B8"/>
<path d="M17.9501 20.9915C20.8059 20.9915 23.1209 18.6765 23.1209 15.8207C23.1209 12.965 20.8059 10.6499 17.9501 10.6499C15.0944 10.6499 12.7793 12.965 12.7793 15.8207C12.7793 18.6765 15.0944 20.9915 17.9501 20.9915Z" fill="#FFB8B8"/>
<path d="M14.8472 33.4604C14.0789 33.2536 13.3403 32.9876 12.6016 32.6922L12.7493 28.7623L14.1971 25.5121C14.5222 25.778 14.8767 25.9849 15.2313 26.1917C15.3199 26.2508 15.4086 26.2804 15.4972 26.3394C16.8564 26.9895 19.102 27.5804 21.259 25.9553C22.0568 25.3348 22.7364 24.5666 23.2387 23.7097L27.3458 26.0144L27.5526 28.4964L27.789 31.3921C27.4344 31.6285 27.0799 31.8353 26.7253 32.0421C24.8047 33.1058 22.6773 33.7559 20.5203 33.9627C20.018 34.0218 19.5157 34.0218 19.0134 34.0218C17.5951 34.0218 16.2064 33.815 14.8472 33.4604Z" fill="#171717"/>
<path d="M15.8512 23.0894L15.6444 25.2168L15.5262 26.3396L15.3785 27.9942L14.8466 33.4605C14.0784 33.2537 13.3397 32.9878 12.601 32.6923C12.2169 32.5446 11.8623 32.3673 11.5077 32.1605C10.6509 31.7172 9.85308 31.1854 9.08484 30.5944L8.52344 27.9352L8.55298 27.9056L15.8512 23.0894Z" fill="#171717"/>
<path d="M26.7245 32.0128C24.8039 33.0765 22.6765 33.7265 20.5195 33.9334C20.6377 31.9537 20.815 30.0626 20.9923 28.3784C21.0809 27.5215 21.1991 26.6942 21.3173 25.9555C21.6719 23.5917 22.056 21.9666 22.3219 21.7598L24.1243 22.9417L31.393 25.5123L31.2453 28.3193C30.2407 29.5012 29.0883 30.5058 27.8178 31.3627C27.4337 31.5991 27.0791 31.8355 26.7245 32.0128Z" fill="#171717"/>
<path d="M9.11399 30.6239C8.75942 30.358 8.4344 30.0625 8.10938 29.767L8.3753 27.9646L8.58214 27.9351L9.49811 27.8169L11.5073 32.1899C10.68 31.7172 9.88223 31.2149 9.11399 30.6239Z" fill="#171717"/>
<path d="M32.3973 26.7533C32.0427 27.3147 31.6586 27.817 31.2154 28.3193C30.2108 29.5012 29.0584 30.5058 27.7879 31.3627C27.4333 31.5991 27.0787 31.8059 26.7242 32.0127L26.5469 31.1854L27.581 28.4966L28.822 25.2168L31.4222 25.5418C31.7472 25.9259 32.0723 26.3396 32.3973 26.7533Z" fill="#171717"/>
<path d="M22.8839 11.1224C22.0861 9.8519 20.8747 8.90638 19.4564 8.49272L18.3927 9.34959L18.8064 8.37453C18.4518 8.31543 18.1268 8.31543 17.7722 8.31543L16.8267 9.52688L17.2108 8.34498C15.5561 8.55181 14.0492 9.43824 13.0741 10.7974C11.8627 12.5407 11.6559 14.9636 12.8378 16.7069C13.1628 15.7023 13.5469 14.7568 13.8719 13.7817C14.1378 13.8113 14.3742 13.8113 14.6402 13.7817L15.0243 12.8658L15.1425 13.7522C16.3835 13.634 18.1859 13.3976 19.3678 13.1908L19.2496 12.5112L19.9292 13.0726C20.2837 12.9839 20.4906 12.9248 20.4906 12.8658C21.3475 14.2545 22.2043 15.1409 23.0908 16.5592C23.4158 14.55 23.9772 12.9248 22.8839 11.1224Z" fill="#2F2E41"/>
<path d="M22.5889 16.3524C22.7848 16.3524 22.9435 16.0349 22.9435 15.6432C22.9435 15.2516 22.7848 14.9341 22.5889 14.9341C22.3931 14.9341 22.2344 15.2516 22.2344 15.6432C22.2344 16.0349 22.3931 16.3524 22.5889 16.3524Z" fill="#FFB8B8"/>
</g>
<defs>
<clipPath id="clip0_1331_19539">
<rect width="32" height="32" fill="white" transform="translate(2.98438 2)"/>
</clipPath>
</defs>
</svg>
