<svg width="36" height="36" viewBox="0 0 36 36" fill="none" xmlns="http://www.w3.org/2000/svg">
<g clip-path="url(#clip0_1802_26926)">
<path d="M34.014 18.0071C34.014 21.1096 33.1275 24.153 31.4138 26.7532C31.0592 27.3146 30.6751 27.8169 30.2319 28.3192C29.2272 29.5011 28.0749 30.5057 26.8044 31.3626C26.4498 31.599 26.0952 31.8058 25.7406 32.0127C23.82 33.0764 21.6926 33.7264 19.5357 33.9333C19.0333 33.9923 18.531 33.9923 18.0287 33.9923C16.64 33.9923 15.2513 33.8151 13.8921 33.4605C13.1238 33.2537 12.3851 32.9877 11.6465 32.6923C11.2623 32.5445 10.9078 32.3672 10.5532 32.1604C9.69632 31.7172 8.89853 31.1853 8.1303 30.5944C7.77573 30.3285 7.4507 30.033 7.12568 29.7375C0.654766 23.7394 0.270648 13.6045 6.2688 7.13362C12.267 0.662711 22.4018 0.249046 28.8727 6.27675C32.1525 9.2906 34.014 13.5454 34.014 18.0071Z" fill="#E6E6E6"/>
<path d="M18.1366 26.5232C15.3676 26.505 12.6332 25.9061 10.1101 24.7652C9.95986 24.6983 9.83238 24.5891 9.74313 24.451C9.65389 24.3129 9.60674 24.1518 9.60743 23.9874V17.0848C9.60768 16.8587 9.69762 16.6419 9.85752 16.482C10.0174 16.3221 10.2342 16.2322 10.4603 16.2319H25.8128C26.0389 16.2322 26.2557 16.3221 26.4156 16.482C26.5755 16.6419 26.6655 16.8587 26.6657 17.0848V23.9874C26.6664 24.1518 26.6193 24.3129 26.53 24.451C26.4408 24.5891 26.3133 24.6983 26.1631 24.7653C23.64 25.9061 20.9056 26.505 18.1366 26.5232Z" fill="#1C84EE"/>
<path d="M18.1345 20.9314C18.0207 20.9315 17.908 20.9089 17.8031 20.8648L5.62879 15.7284C5.47179 15.6622 5.33823 15.5505 5.24533 15.4076C5.15243 15.2648 5.10444 15.0974 5.10757 14.927C5.11069 14.7567 5.16478 14.5911 5.26285 14.4518C5.36092 14.3124 5.49848 14.2057 5.6578 14.1452L17.8323 9.52666C18.0284 9.45193 18.2452 9.45239 18.4409 9.52796L30.4523 14.1465C30.6107 14.2074 30.7473 14.3142 30.8447 14.4533C30.9421 14.5923 30.9958 14.7572 30.9989 14.9269C31.002 15.0966 30.9545 15.2633 30.8623 15.4058C30.7701 15.5484 30.6375 15.6601 30.4815 15.7269L18.47 20.8631C18.3639 20.9083 18.2498 20.9315 18.1345 20.9314Z" fill="#1C84EE"/>
<path d="M11.0298 25.2351C11.6579 25.2351 12.167 24.726 12.167 24.0979C12.167 23.4698 11.6579 22.9607 11.0298 22.9607C10.4017 22.9607 9.89258 23.4698 9.89258 24.0979C9.89258 24.726 10.4017 25.2351 11.0298 25.2351Z" fill="#003CE4"/>
<path opacity="0.2" d="M30.5256 14.9978L18.5141 20.1341C18.4204 20.1741 18.3197 20.1949 18.2179 20.1951C18.116 20.1954 18.0152 20.1751 17.9213 20.1355L5.74702 14.9993C5.59413 14.9363 5.46657 14.8242 5.38451 14.6807C5.33083 14.7738 5.29757 14.8772 5.28693 14.9841C5.27629 15.0911 5.28851 15.199 5.3228 15.3009C5.35709 15.4027 5.41264 15.4961 5.48578 15.5748C5.55892 15.6535 5.64797 15.7158 5.74702 15.7575L17.9213 20.8937C18.0152 20.9333 18.116 20.9535 18.2179 20.9533C18.3197 20.953 18.4204 20.9323 18.5141 20.8922L30.5256 15.7559C30.6242 15.7139 30.7127 15.6515 30.7853 15.5727C30.8579 15.4939 30.913 15.4007 30.947 15.2991C30.9809 15.1974 30.9929 15.0898 30.9822 14.9832C30.9714 14.8766 30.9382 14.7735 30.8847 14.6807C30.8032 14.8231 30.677 14.9346 30.5256 14.9978Z" fill="black"/>
<path d="M11.1251 24.0936C11.1754 24.0936 11.2236 24.0736 11.2591 24.0381C11.2947 24.0025 11.3146 23.9543 11.3146 23.9041V17.5619L17.5658 15.2846C17.616 15.2853 17.6645 15.2661 17.7006 15.2311C17.7367 15.1961 17.7574 15.1481 17.7581 15.0979C17.7589 15.0476 17.7396 14.9991 17.7046 14.963C17.6696 14.927 17.6217 14.9063 17.5714 14.9055L11.3203 17.1828C11.27 17.1817 11.2199 17.1907 11.1733 17.2095C11.1266 17.2282 11.0841 17.2562 11.0486 17.2918C11.0127 17.327 10.9842 17.369 10.9647 17.4154C10.9453 17.4618 10.9354 17.5116 10.9355 17.5619V23.9041C10.9356 23.9543 10.9555 24.0025 10.9911 24.0381C11.0266 24.0736 11.0748 24.0936 11.1251 24.0936Z" fill="#003CE4"/>
</g>
<defs>
<clipPath id="clip0_1802_26926">
<rect width="32" height="32" fill="white" transform="translate(2 2)"/>
</clipPath>
</defs>
</svg>
