<svg width="37" height="36" viewBox="0 0 37 36" fill="none" xmlns="http://www.w3.org/2000/svg">
<g clip-path="url(#clip0_1331_23412)">
<path d="M25.793 24.8H17.793V13.9729L24.7103 17.7624L25.793 24.8Z" fill="#2F2E41"/>
<path d="M19.2701 22.8891C22.1386 22.8891 24.464 20.5637 24.464 17.6951C24.464 14.8266 22.1386 12.5012 19.2701 12.5012C16.4016 12.5012 14.0762 14.8266 14.0762 17.6951C14.0762 20.5637 16.4016 22.8891 19.2701 22.8891Z" fill="#FFB6B6"/>
<path d="M16.2882 23.6572L16.0535 21.2852L20.7393 20.4091L23.5062 27.1459L18.6942 32.6797L15.2656 25.9429L16.2882 23.6572Z" fill="#FFB6B6"/>
<path d="M30.475 29.1332C30.4167 29.1939 30.3571 29.2541 30.2976 29.3136C30.1087 29.5025 29.9162 29.686 29.7195 29.864C26.7722 32.5371 22.9905 33.9999 18.9839 33.9999C15.2901 33.9999 11.7875 32.7566 8.95381 30.4679C8.95201 30.4667 8.9508 30.4655 8.949 30.4637C8.86298 30.3945 8.77817 30.3241 8.69336 30.2526C8.7084 30.2093 8.72464 30.1666 8.74088 30.1244C9.65216 27.7503 11.4519 26.5888 12.5442 26.0805C13.0855 25.8285 13.4531 25.7365 13.4531 25.7365L14.7355 23.4267L15.6383 25.1109L16.3036 26.3524L19.0332 31.4454L21.3881 25.5819L22.1177 23.7641L22.3048 23.2986L23.1944 23.9909L24.0365 24.646L25.7322 25.0201L27.1078 25.3238L28.9761 25.7365C29.7316 26.3518 30.1911 27.5223 30.4479 28.9768C30.4576 29.0285 30.4666 29.0808 30.475 29.1332Z" fill="black"/>
<path d="M16.5389 11.7926C17.1716 10.7299 18.3336 10.0007 19.5657 9.89328C20.7978 9.78581 22.0685 10.3028 22.8756 11.2399C23.3566 11.7984 23.6719 12.4823 24.1407 13.051C25.1496 14.2748 26.8699 14.9903 27.3106 16.5139C27.5029 17.1787 27.4071 17.8885 27.3098 18.5738C27.2264 19.1611 27.143 19.7484 27.0595 20.3357C26.9946 20.7928 26.9324 21.2746 27.1038 21.7033C27.3048 22.2062 27.786 22.5356 28.0971 22.9789C28.6265 23.7333 28.5878 24.8378 28.0069 25.5532C27.755 25.8635 27.421 26.0975 27.1569 26.3975C26.8928 26.6975 26.6969 27.1076 26.8076 27.4917C27.0195 28.2274 28.1732 28.4038 28.2998 29.1589C28.3645 29.545 28.0978 29.9305 27.7485 30.107C27.3991 30.2836 26.9878 30.2887 26.5992 30.2415C25.1223 30.0619 23.7549 29.1391 23.0358 27.8367C22.3168 26.5342 22.2644 24.8854 22.8994 23.5399C23.4209 22.4348 24.3902 21.4584 24.3797 20.2365C24.3739 19.5708 24.0686 18.9491 23.77 18.3541C23.1589 17.1363 22.5479 15.9185 21.9368 14.7007C21.6094 14.0484 21.2296 13.3454 20.5557 13.0652C20.0348 12.8486 19.4439 12.9326 18.8868 13.0212C18.3298 13.1098 17.7397 13.196 17.2173 12.9832C16.6949 12.7704 16.3002 12.1381 16.5491 11.6319" fill="#2F2E41"/>
<path d="M17.4482 11.8482C16.4448 11.5179 15.3191 12.0482 14.6397 12.8572C13.9604 13.6662 13.6309 14.7042 13.3169 15.7129C13.1371 16.2907 12.9573 16.8685 12.7775 17.4463C12.6083 17.9898 12.4391 18.5333 12.27 19.0769C12.071 19.7162 11.8704 20.3954 12.0337 21.0447C12.1518 21.5142 12.4555 21.9405 12.4621 22.4245C12.4689 22.9301 12.1523 23.374 11.8748 23.7967C11.5973 24.2194 11.3368 24.7216 11.469 25.2097C11.6701 25.952 12.7022 26.3601 12.6457 27.1271C12.6268 27.3831 12.4787 27.6199 12.4814 27.8765C12.4848 28.2031 12.7405 28.4853 13.0401 28.6154C13.3396 28.7455 13.6766 28.7526 14.0031 28.7468C15.0047 28.7292 16.0045 28.6103 16.9822 28.3924C17.3584 28.3086 17.7409 28.2057 18.0541 27.981C18.3672 27.7564 18.6008 27.3841 18.5601 27.0008C18.4966 26.4036 17.8544 26.0648 17.5304 25.5592C17.2121 25.0625 17.2195 24.4332 17.0823 23.8594C16.8936 23.071 16.4278 22.3826 16.0781 21.6512C14.7634 18.9013 15.2236 15.3963 17.2037 13.0791C17.3787 12.8742 17.57 12.6681 17.643 12.4087C17.7161 12.1493 17.6219 11.8188 17.3682 11.728" fill="#2F2E41"/>
<path d="M30.2981 6.68631C27.2761 3.66436 23.2581 2 18.9844 2C14.7107 2 10.6926 3.66436 7.67069 6.68631C4.64873 9.70827 2.98438 13.7263 2.98438 18C2.98438 21.9008 4.37084 25.5886 6.91159 28.5004C7.154 28.7789 7.40723 29.0502 7.67069 29.3137C7.73265 29.3756 7.7952 29.4376 7.85836 29.4977C8.02678 29.6608 8.19821 29.8201 8.37265 29.9747C8.47851 30.0692 8.58558 30.1618 8.69385 30.2526C8.77866 30.3242 8.86347 30.3946 8.94949 30.4638C8.95129 30.4656 8.9525 30.4668 8.9543 30.468C11.788 32.7567 15.2905 34 18.9844 34C22.991 34 26.7726 32.5371 29.72 29.8641C29.9167 29.686 30.1092 29.5026 30.2981 29.3137C30.3576 29.2541 30.4172 29.194 30.4755 29.1332C30.6379 28.966 30.7955 28.7958 30.9495 28.6232C33.5582 25.6926 34.9844 21.9561 34.9844 18C34.9844 13.7263 33.32 9.70827 30.2981 6.68631ZM30.9104 28.4734C30.76 28.6442 30.606 28.8126 30.4484 28.9768C30.203 29.2325 29.9498 29.4803 29.6881 29.7191C29.5889 29.8105 29.4884 29.8995 29.3868 29.988C28.36 30.8812 27.2172 31.6439 25.9847 32.2514C25.5522 32.465 25.1089 32.6592 24.6554 32.8331C22.8935 33.5092 20.9814 33.8797 18.9844 33.8797C17.0572 33.8797 15.2093 33.5344 13.4993 32.9029C12.7973 32.6442 12.1188 32.3368 11.4674 31.985C11.3717 31.9332 11.2767 31.8809 11.1823 31.8274C10.6854 31.5459 10.2048 31.2385 9.74347 30.9065C9.39881 30.6592 9.06438 30.3988 8.74137 30.1245C8.62829 30.0289 8.51641 29.932 8.40633 29.8328C8.22708 29.6734 8.05144 29.5092 7.88002 29.3407C7.5552 29.0226 7.24483 28.6911 6.94829 28.3465C4.5537 25.5651 3.10468 21.9489 3.10468 18C3.10468 9.24391 10.2283 2.1203 18.9844 2.1203C27.7405 2.1203 34.8641 9.24391 34.8641 18C34.8641 22.0096 33.3705 25.6764 30.9104 28.4734Z" fill="#3F3D56"/>
</g>
<defs>
<clipPath id="clip0_1331_23412">
<rect width="32" height="32" fill="white" transform="translate(2.98438 2)"/>
</clipPath>
</defs>
</svg>
